<?xml version="1.0" encoding="UTF-8" standalone="no"?>
<!-- Created with Inkscape (http://www.inkscape.org/) -->

<svg
   version="1.1"
   id="svg3255"
   xml:space="preserve"
   width="682.66669"
   height="682.66669"
   viewBox="0 0 682.66669 682.66669"
   xmlns="http://www.w3.org/2000/svg"
   xmlns:svg="http://www.w3.org/2000/svg"><defs
     id="defs3259"><clipPath
       clipPathUnits="userSpaceOnUse"
       id="clipPath3269"><path
         d="M 0,512 H 512 V 0 H 0 Z"
         id="path3267" /></clipPath></defs><g
     id="g3261"
     transform="matrix(1.3333333,0,0,-1.3333333,0,682.66667)"><g
       id="g3263"><g
         id="g3265"
         clip-path="url(#clipPath3269)"><g
           id="g3271"
           transform="translate(377.1221,171.4756)"><path
             d="m 0,0 15.397,-15.382 c 9.764,-9.753 9.764,-25.566 0,-35.319 -9.763,-9.754 -25.592,-9.754 -35.355,0 l -53.74,53.685"
             style="fill:none;stroke:#000000;stroke-width:15;stroke-linecap:round;stroke-linejoin:round;stroke-miterlimit:10;stroke-dasharray:none;stroke-opacity:1"
             id="path3273" /></g><g
           id="g3275"
           transform="translate(357.1646,120.7744)"><path
             d="m 0,0 c 9.763,-9.754 9.763,-25.566 0,-35.32 v 0 c -9.763,-9.753 -25.592,-9.753 -35.355,0"
             style="fill:none;stroke:#000000;stroke-width:15;stroke-linecap:round;stroke-linejoin:round;stroke-miterlimit:10;stroke-dasharray:none;stroke-opacity:1"
             id="path3277" /></g><g
           id="g3279"
           transform="translate(268.0688,139.1406)"><path
             d="m 0,0 53.74,-53.687 c 9.763,-9.752 9.763,-25.566 0,-35.319 -9.763,-9.753 -25.592,-9.753 -35.355,0 l -53.74,53.686"
             style="fill:none;stroke:#000000;stroke-width:15;stroke-linecap:round;stroke-linejoin:round;stroke-miterlimit:10;stroke-dasharray:none;stroke-opacity:1"
             id="path3281" /></g><g
           id="g3283"
           transform="translate(286.4536,50.1348)"><path
             d="m 0,0 c 9.763,-9.753 9.763,-25.566 0,-35.319 v -10e-4 c -9.763,-9.753 -25.592,-9.753 -35.355,0 l -16.133,16.116"
             style="fill:none;stroke:#000000;stroke-width:15;stroke-linecap:round;stroke-linejoin:round;stroke-miterlimit:10;stroke-dasharray:none;stroke-opacity:1"
             id="path3285" /></g><g
           id="g3287"
           transform="translate(195.9399,303.02)"><path
             d="m 0,0 c 2.57,0.2 5.14,0.3 7.7,0.3 17.63,0 34.84,-4.65 49.94,-13.32"
             style="fill:none;stroke:#000000;stroke-width:15;stroke-linecap:round;stroke-linejoin:round;stroke-miterlimit:10;stroke-dasharray:none;stroke-opacity:1"
             id="path3289" /></g><g
           id="g3291"
           transform="translate(106.6802,179.3701)"><path
             d="M 0,0 C -2.55,10.29 -3.49,21.02 -2.66,31.82"
             style="fill:none;stroke:#000000;stroke-width:15;stroke-linecap:round;stroke-linejoin:round;stroke-miterlimit:10;stroke-dasharray:none;stroke-opacity:1"
             id="path3293" /></g><g
           id="g3295"
           transform="translate(7.5,271.5894)"><path
             d="m 0,0 57.276,-57.218 c 11.715,-11.704 30.71,-11.704 42.426,0 l 85.34,85.254 c 11.801,11.789 11.703,30.934 -0.22,42.601 L 20.723,232.289"
             style="fill:none;stroke:#000000;stroke-width:15;stroke-linecap:round;stroke-linejoin:round;stroke-miterlimit:10;stroke-dasharray:none;stroke-opacity:1"
             id="path3297" /></g><g
           id="g3299"
           transform="translate(183.4775,14.8145)"><path
             d="M 0,0 V 0.001 C -9.763,9.754 -9.763,25.567 0,35.32 l 16.464,16.448 c 9.764,9.753 25.593,9.753 35.355,0 h 10e-4 c 9.763,-9.753 9.763,-25.567 0,-35.32 L 35.355,0 C 25.592,-9.753 9.763,-9.753 0,0 Z"
             style="fill:none;stroke:#000000;stroke-width:15;stroke-linecap:round;stroke-linejoin:round;stroke-miterlimit:10;stroke-dasharray:none;stroke-opacity:1"
             id="path3301" /></g><g
           id="g3303"
           transform="translate(148.1221,50.1348)"><path
             d="m 0,0 v 0 c -9.763,9.753 -9.763,25.566 0,35.319 l 16.464,16.449 c 9.764,9.753 25.593,9.753 35.356,0 9.763,-9.754 9.763,-25.567 0,-35.321 L 35.355,0 C 25.592,-9.753 9.763,-9.753 0,0 Z"
             style="fill:none;stroke:#000000;stroke-width:15;stroke-linecap:round;stroke-linejoin:round;stroke-miterlimit:10;stroke-dasharray:none;stroke-opacity:1"
             id="path3305" /></g><g
           id="g3307"
           transform="translate(112.7666,85.4541)"><path
             d="m 0,0 v 0 c -9.763,9.754 -9.763,25.566 0,35.32 l 16.464,16.448 c 9.764,9.753 25.593,9.753 35.356,0 9.763,-9.753 9.763,-25.567 0,-35.32 L 35.355,0 C 25.592,-9.753 9.763,-9.753 0,0 Z"
             style="fill:none;stroke:#000000;stroke-width:15;stroke-linecap:round;stroke-linejoin:round;stroke-miterlimit:10;stroke-dasharray:none;stroke-opacity:1"
             id="path3309" /></g><g
           id="g3311"
           transform="translate(77.4116,120.7744)"><path
             d="m 0,0 v 0 c -9.763,9.753 -9.763,25.566 0,35.319 l 16.464,16.448 c 9.763,9.754 25.592,9.754 35.355,0 9.764,-9.753 9.764,-25.567 0,-35.32 L 35.355,0 C 25.592,-9.754 9.763,-9.754 0,0 Z"
             style="fill:none;stroke:#000000;stroke-width:15;stroke-linecap:round;stroke-linejoin:round;stroke-miterlimit:10;stroke-dasharray:none;stroke-opacity:1"
             id="path3313" /></g><g
           id="g3315"
           transform="translate(312.1021,311.2183)"><path
             d="m 0,0 h -19.09 c -13,0 -25.385,-5.532 -34.053,-15.211 l -59.311,-66.225 c -5.59,-6.242 -5.326,-15.76 0.602,-21.683 13.691,-13.676 35.887,-13.676 49.577,0 l 34.716,34.681 c 5.856,5.851 15.346,5.851 21.203,0 23.792,-23.768 47.584,-47.536 71.376,-71.305 6.466,4.135 15.099,10.66 23.368,20.452 4.911,5.816 8.696,11.604 11.615,16.916"
             style="fill:none;stroke:#000000;stroke-width:15;stroke-linecap:round;stroke-linejoin:round;stroke-miterlimit:10;stroke-dasharray:none;stroke-opacity:1"
             id="path3317" /></g><g
           id="g3319"
           transform="translate(504.5,271.5889)"><path
             d="m 0,0 -57.276,-57.218 c -11.715,-11.704 -30.71,-11.704 -42.426,0 l -85.555,85.469 c -11.718,11.706 -11.716,30.686 0.005,42.389 l 162.484,162.271"
             style="fill:none;stroke:#000000;stroke-width:15;stroke-linecap:round;stroke-linejoin:round;stroke-miterlimit:10;stroke-dasharray:none;stroke-opacity:1"
             id="path3321" /></g><g
           id="g3323"
           transform="translate(470.8013,237.9238)"><path
             d="M 0,0 -126.651,129.191"
             style="fill:none;stroke:#000000;stroke-width:15;stroke-linecap:round;stroke-linejoin:round;stroke-miterlimit:10;stroke-dasharray:none;stroke-opacity:1"
             id="path3325" /></g><g
           id="g3327"
           transform="translate(67.4199,252.1973)"><path
             d="M 0,0 106.201,108.331"
             style="fill:none;stroke:#000000;stroke-width:15;stroke-linecap:round;stroke-linejoin:round;stroke-miterlimit:10;stroke-dasharray:none;stroke-opacity:1"
             id="path3329" /></g><g
           id="g3331"
           transform="translate(284.8301,498.8218)"><path
             d="m 0,0 c 27.535,-11.34 46.915,-38.438 46.915,-70.067 0,-41.771 -33.824,-75.745 -75.745,-75.745 -41.922,0 -75.745,33.981 -75.745,75.745 0,41.838 33.908,75.745 75.745,75.745"
             style="fill:none;stroke:#000000;stroke-width:15;stroke-linecap:round;stroke-linejoin:round;stroke-miterlimit:10;stroke-dasharray:none;stroke-opacity:1"
             id="path3333" /></g><g
           id="g3335"
           transform="translate(224.0581,420.6689)"><path
             d="m 0,0 15.091,-15.091 c 2.733,-2.733 7.165,-2.733 9.899,0 l 38.894,38.894"
             style="fill:none;stroke:#000000;stroke-width:15;stroke-linecap:round;stroke-linejoin:round;stroke-miterlimit:10;stroke-dasharray:none;stroke-opacity:1"
             id="path3337" /></g></g></g></g></svg>
