<?xml version="1.0" encoding="UTF-8"?>
<svg xmlns="http://www.w3.org/2000/svg" id="Layer_1" data-name="Layer 1" viewBox="0 0 512 512" width="512" height="512"><path d="M488.375,380.8a36.053,36.053,0,0,0-38.828-22.875L340.911,374.014a35.014,35.014,0,0,0-23.057-37.061l-89.411-29.292a76.509,76.509,0,0,0-47.677.12l-64.2,21.4A32.029,32.029,0,0,0,85.333,304h-32a32.035,32.035,0,0,0-32,32V453.333a32.035,32.035,0,0,0,32,32h32A31.953,31.953,0,0,0,116.052,461.8l45.443-7.572a27.3,27.3,0,0,1,16.776,2.521l51.792,25.9a75.537,75.537,0,0,0,58,4.125l178.078-59.365A35.853,35.853,0,0,0,488.375,380.8ZM96,453.333A10.681,10.681,0,0,1,85.333,464h-32a10.681,10.681,0,0,1-10.667-10.667V336a10.681,10.681,0,0,1,10.667-10.667h32A10.681,10.681,0,0,1,96,336Zm371.911-53.693a14.4,14.4,0,0,1-8.521,7.526L281.318,466.531a54.264,54.264,0,0,1-41.714-2.969l-51.792-25.9a48.427,48.427,0,0,0-29.823-4.479l-40.656,6.774V351.413l70.182-23.393a54.942,54.942,0,0,1,34.281-.089l89.089,29.182a13.743,13.743,0,0,1-7.156,26.438L206.521,365.88a10.667,10.667,0,0,0-3.812,20.99l97.2,17.672a34.851,34.851,0,0,0,27.991-7.033l124.77-18.482a14.567,14.567,0,0,1,15.729,9.266A14.381,14.381,0,0,1,467.911,399.641Z"/><path d="M258.672,178.633c1.38.526,2.641,1,3.688,1.461,1.526.669,3.281,1.346,5.167,2.068,10.469,4,15.141,6.638,15.141,11.7,0,2.216-2.365,5.656-6.88,7.943-3.2,1.617-14.75,6.047-29.469-4.771a10.666,10.666,0,1,0-12.635,17.188A57.459,57.459,0,0,0,256,224.346v10.32a10.667,10.667,0,0,0,21.333,0V223.786a42.606,42.606,0,0,0,8.083-2.945C296.88,215.042,304,204.7,304,193.862c0-20.6-18.776-27.776-28.865-31.63-1.516-.581-2.937-1.117-4.161-1.656-1.344-.594-2.953-1.211-4.729-1.885-10.1-3.836-15.578-6.867-15.578-11.885,0-2.216,2.365-5.656,6.88-7.943,3.2-1.617,14.75-6.047,29.469,4.771a10.666,10.666,0,0,0,12.635-17.187,57.468,57.468,0,0,0-22.318-10.123v-9.656a10.667,10.667,0,1,0-21.333,0v10.159a42.652,42.652,0,0,0-8.083,3c-11.464,5.8-18.583,16.138-18.583,26.979C229.333,167.492,249.146,175.018,258.672,178.633Z"/><path d="M266.667,288A117.333,117.333,0,1,0,149.333,170.667,117.466,117.466,0,0,0,266.667,288Zm0-213.333a96,96,0,1,1-96,96A96.11,96.11,0,0,1,266.667,74.667Z"/><path d="M429.792,327.542a10.663,10.663,0,0,0,15.083,0l32-32a10.666,10.666,0,0,0-15.083-15.083L448,294.25V192a10.667,10.667,0,1,0-21.333,0V294.25l-13.792-13.792a10.666,10.666,0,1,0-15.083,15.083Z"/><path d="M416,106.667A10.667,10.667,0,0,0,426.667,96V32a10.667,10.667,0,0,0-21.333,0V96A10.667,10.667,0,0,0,416,106.667Z"/><path d="M458.667,149.333a10.667,10.667,0,0,0,10.667-10.667v-64a10.667,10.667,0,1,0-21.333,0v64A10.667,10.667,0,0,0,458.667,149.333Z"/><path d="M106.667,128a10.667,10.667,0,0,0,10.667-10.667v-64a10.667,10.667,0,1,0-21.333,0v64A10.667,10.667,0,0,0,106.667,128Z"/><path d="M64,192a10.667,10.667,0,0,0,10.667-10.667v-64a10.667,10.667,0,0,0-21.333,0v64A10.667,10.667,0,0,0,64,192Z"/></svg>
