<?xml version="1.0" encoding="UTF-8" standalone="no"?>
<!-- Created with Inkscape (http://www.inkscape.org/) -->

<svg
   version="1.1"
   id="svg5193"
   xml:space="preserve"
   width="682.66669"
   height="682.66669"
   viewBox="0 0 682.66669 682.66669"
   xmlns="http://www.w3.org/2000/svg"
   xmlns:svg="http://www.w3.org/2000/svg"><defs
     id="defs5197"><clipPath
       clipPathUnits="userSpaceOnUse"
       id="clipPath5207"><path
         d="M 0,512 H 512 V 0 H 0 Z"
         id="path5205" /></clipPath></defs><g
     id="g5199"
     transform="matrix(1.3333333,0,0,-1.3333333,0,682.66667)"><g
       id="g5201"><g
         id="g5203"
         clip-path="url(#clipPath5207)"><g
           id="g5209"
           transform="translate(315.5835,72.8066)"><path
             d="m 0,0 h -60.586 c -12.704,0 -25.39,0.921 -37.96,2.757 l -13.282,1.939"
             style="fill:none;stroke:#000000;stroke-width:15;stroke-linecap:round;stroke-linejoin:round;stroke-miterlimit:10;stroke-dasharray:none;stroke-opacity:1"
             id="path5211" /></g><g
           id="g5213"
           transform="translate(83.7485,103.6221)"><path
             d="m 0,0 v -69.188 c 0,-7.303 -5.921,-13.225 -13.226,-13.225 h -22.463 c -7.305,0 -13.226,5.922 -13.226,13.225 V 74.273 c 0,7.304 5.921,13.226 13.226,13.226 h 22.463 C -5.921,87.499 0,81.577 0,74.273 v -39.2"
             style="fill:none;stroke:#000000;stroke-width:15;stroke-linecap:round;stroke-linejoin:round;stroke-miterlimit:10;stroke-dasharray:none;stroke-opacity:1"
             id="path5215" /></g><g
           id="g5217"
           transform="translate(83.7485,43.9971)"><path
             d="m 0,0 85.158,-31.697 c 8.528,-3.174 17.555,-4.8 26.655,-4.8 H 215.3 c 14.482,0 28.666,4.115 40.899,11.867 l 129.576,73.104 c 8.549,7.59 10.133,20.348 3.702,29.8 -7.037,10.342 -18.678,12.139 -31.488,6.082 L 231.834,28.81 l 0.15,12.006 c -1.671,16.8 -14.606,30.283 -31.322,32.648 L 123.837,82.31 C 106.115,84.817 97.259,90.756 81.81,99.793 60.718,112.132 36.722,118.635 12.285,118.635 H 0"
             style="fill:none;stroke:#000000;stroke-width:15;stroke-linecap:round;stroke-linejoin:round;stroke-miterlimit:10;stroke-dasharray:none;stroke-opacity:1"
             id="path5219" /></g><g
           id="g5221"
           transform="translate(275.6841,495.0752)"><path
             d="m 0,0 v 0 c 6.898,-8.57 18.55,-11.691 28.809,-7.719 15.043,5.825 31.617,-3.745 34.094,-19.684 v 0 c 1.689,-10.871 10.218,-19.401 21.09,-21.09 15.939,-2.477 25.509,-19.051 19.684,-34.094 -3.973,-10.26 -0.851,-21.91 7.719,-28.809 12.566,-10.115 12.566,-29.253 0,-39.368 -8.57,-6.898 -11.692,-18.549 -7.719,-28.809 5.825,-15.042 -3.745,-31.617 -19.684,-34.094 -10.872,-1.689 -19.401,-10.218 -21.09,-21.09 v 0 c -2.477,-15.939 -19.051,-25.509 -34.094,-19.683 -10.259,3.972 -21.911,0.85 -28.809,-7.72 -10.115,-12.566 -29.253,-12.566 -39.368,0 -6.899,8.57 -18.549,11.692 -28.809,7.72 -15.043,-5.826 -31.617,3.744 -34.094,19.683 -1.689,10.872 -10.218,19.401 -21.09,21.09 -15.939,2.477 -25.509,19.052 -19.684,34.094 3.973,10.26 0.851,21.911 -7.719,28.809 -12.566,10.115 -12.566,29.253 0,39.368 8.57,6.899 11.692,18.549 7.719,28.809 -5.825,15.043 3.745,31.617 19.684,34.094 10.872,1.689 19.401,10.219 21.09,21.09 2.477,15.939 19.051,25.509 34.094,19.684 10.26,-3.972 21.91,-0.851 28.809,7.719 C -29.253,12.566 -10.115,12.566 0,0 Z"
             style="fill:none;stroke:#000000;stroke-width:15;stroke-linecap:round;stroke-linejoin:round;stroke-miterlimit:10;stroke-dasharray:none;stroke-opacity:1"
             id="path5223" /></g><g
           id="g5225"
           transform="translate(162.8584,381.54)"><path
             d="m 0,0 c 8.228,43.953 46.8,77.218 93.142,77.218 52.336,0 94.762,-42.427 94.762,-94.763 0,-52.336 -42.426,-94.763 -94.762,-94.763 -46.347,0 -84.922,33.272 -93.144,77.233"
             style="fill:none;stroke:#000000;stroke-width:15;stroke-linecap:round;stroke-linejoin:round;stroke-miterlimit:10;stroke-dasharray:none;stroke-opacity:1"
             id="path5227" /></g><g
           id="g5229"
           transform="translate(257.8433,333.8193)"><path
             d="m 0,0 30.149,-19.929 c 2.578,-1.703 5.889,0.702 5.065,3.68 l -9.636,34.832 c -0.358,1.291 0.09,2.671 1.139,3.506 l 28.269,22.515 c 2.417,1.925 1.152,5.818 -1.934,5.955 l -36.105,1.598 c -1.339,0.06 -2.512,0.912 -2.983,2.167 L 1.287,88.168 c -1.084,2.893 -5.177,2.893 -6.261,0 L -17.651,54.324 c -0.47,-1.255 -1.644,-2.107 -2.982,-2.167 l -36.105,-1.598 c -3.087,-0.137 -4.351,-4.03 -1.935,-5.955 l 28.27,-22.515 c 1.048,-0.835 1.496,-2.215 1.139,-3.506 L -38.9,-16.249 c -0.824,-2.978 2.487,-5.383 5.065,-3.68 L -3.687,0 C -2.569,0.738 -1.118,0.738 0,0 Z"
             style="fill:none;stroke:#000000;stroke-width:15;stroke-linecap:round;stroke-linejoin:round;stroke-miterlimit:10;stroke-dasharray:none;stroke-opacity:1"
             id="path5231" /></g><g
           id="g5233"
           transform="translate(171.6807,266.3516)"><path
             d="m 0,0 -36.916,-71.582 c -1.623,-3.147 1.19,-6.748 4.635,-5.937 l 41.098,9.681 c 1.988,0.468 4.019,-0.58 4.79,-2.47 l 15.942,-39.097 c 1.337,-3.279 5.902,-3.482 7.525,-0.335 l 35.881,69.574"
             style="fill:none;stroke:#000000;stroke-width:15;stroke-linecap:round;stroke-linejoin:round;stroke-miterlimit:10;stroke-dasharray:none;stroke-opacity:1"
             id="path5235" /></g><g
           id="g5237"
           transform="translate(267.3647,226.1846)"><path
             d="m 0,0 35.881,-69.573 c 1.622,-3.147 6.187,-2.944 7.524,0.335 l 15.942,39.097 c 0.771,1.89 2.803,2.938 4.79,2.47 l 41.098,-9.681 c 3.446,-0.811 6.258,2.79 4.636,5.937 L 72.955,40.167"
             style="fill:none;stroke:#000000;stroke-width:15;stroke-linecap:round;stroke-linejoin:round;stroke-miterlimit:10;stroke-dasharray:none;stroke-opacity:1"
             id="path5239" /></g></g></g></g></svg>
