<svg id="Capa_1" data-name="Capa 1" xmlns="http://www.w3.org/2000/svg" viewBox="0 0 123.4 188.1"><defs><style>.cls-1{fill:#7200ea;}</style></defs><path class="cls-1" d="M61.7,115h-.5c-.7-.2-19-5.4-27-16.2S25.1,63.6,25,62.5a1.7,1.7,0,0,1,.8-1.6c.4-.2,9.8-6.7,9.8-23.8a1.8,1.8,0,0,1,1.7-1.8,1.9,1.9,0,0,1,2,1.5l2,11.1a29.4,29.4,0,0,0,8.3-18.6,1.8,1.8,0,0,1,1.8-1.7,1.9,1.9,0,0,1,1.9,1.6c.5,4.3,2.9,15.9,9.1,18,8.3,2.8,23.7,4.4,23.8,4.4a2.9,2.9,0,0,1,1.4.8c2.2,3.4,6.5,8.2,9,8.2a2,2,0,0,1,1.4.6,2.4,2.4,0,0,1,.5,1.4c-.1,1-1.4,25.6-9.2,36.1S63,114.7,62.2,115Zm-33-51.7c.4,4.7,2.1,24.7,8.4,33.2s21.7,13.8,24.7,14.8c2.9-.9,18-5.9,24.6-14.8S94.3,69.6,94.7,64c-4.2-1.4-8.2-6.6-9.7-8.8-3.4-.4-16.1-1.9-23.8-4.5-5.1-1.7-8-7.4-9.7-12.4A35.2,35.2,0,0,1,41.2,53.1a1.7,1.7,0,0,1-1.8.2A1.6,1.6,0,0,1,38.3,52l-.6-3.1c-2.4,8.4-7.1,12.9-9,14.4Z"/><path class="cls-1" d="M31.3,130.5l-1.6-3.3,19.2-9v-9.3h3.6v10.5a1.9,1.9,0,0,1-1,1.7Z"/><path class="cls-1" d="M91.9,130.4,72,121.1a1.8,1.8,0,0,1-1.1-1.7V108.9h3.7v9.4l18.9,8.8Z"/><path class="cls-1" d="M121.6,188.1H1.8A1.8,1.8,0,0,1,0,186.3V156.2a23.9,23.9,0,0,1,13.8-21.6l7.1-3.3,1.5,3.3-7.1,3.3A20.3,20.3,0,0,0,3.6,156.3v28.1H119.7V156.2a20.2,20.2,0,0,0-11.6-18.3l-7.1-3.3,1.5-3.3,7.1,3.3a23.9,23.9,0,0,1,13.8,21.6v30.1a1.7,1.7,0,0,1-1.8,1.8Z"/><path class="cls-1" d="M61.7,96.3a15.9,15.9,0,0,1-11.6-5l2.7-2.5a12.4,12.4,0,0,0,9.1,3.8,12.2,12.2,0,0,0,8.8-3.8l2.7,2.5a16.3,16.3,0,0,1-11.5,5Z"/><path class="cls-1" d="M38.4,59.3l-1.9-3.2a17.9,17.9,0,0,1,9-2.5h.1a19,19,0,0,1,9,2.5l-1.9,3.2a13.7,13.7,0,0,0-7.1-2h0A14.1,14.1,0,0,0,38.4,59.3Z"/><path class="cls-1" d="M42.6,66.5h3.7v6.6H42.6Z"/><path class="cls-1" d="M44.8,66.5h3.7v6.6H44.8Z"/><path class="cls-1" d="M38.9,70.5H37.5V66.9h.9a12.7,12.7,0,0,1,7.2-2.2h0a13.3,13.3,0,0,1,6.5,1.8l.7.4-1.2,3.4-1.2-.5a8.8,8.8,0,0,0-4.8-1.5A9.9,9.9,0,0,0,40,70.2,2,2,0,0,1,38.9,70.5Z"/><path class="cls-1" d="M85.1,59.3a14.1,14.1,0,0,0-7.2-2h-.1a13.2,13.2,0,0,0-7,2l-1.9-3.2a17.8,17.8,0,0,1,8.9-2.5h.1a17.9,17.9,0,0,1,9,2.5Z"/><path class="cls-1" d="M77.2,66.5h3.6v6.6H77.2Z"/><path class="cls-1" d="M75,66.5h3.6v6.6H75Z"/><path class="cls-1" d="M86,70.5H84.5a2.3,2.3,0,0,1-1.1-.3,9.6,9.6,0,0,0-5.5-1.9h-.1a9.7,9.7,0,0,0-4.7,1.5l-1.2.6-1.2-3.5.7-.3a13.2,13.2,0,0,1,6.5-1.9h0a13.5,13.5,0,0,1,7.2,2.2H86v3.6Z"/><path class="cls-1" d="M68.2,51.8a65.9,65.9,0,0,1-5.9-17.6l3.6-.5c1.2,7.9,5.5,16.4,5.5,16.5Z"/><path class="cls-1" d="M84.7,54.8c-.3-.4-9.3-8.8-10.8-19.1l3.6-.5c1.4,9,9.7,16.8,9.8,16.9Z"/><path class="cls-1" d="M28.7,62.5H25c0-11.4,2.4-26.7,2.4-27.3l3.7.5a204.8,204.8,0,0,0-2.4,26.8Z"/><path class="cls-1" d="M98.5,62.5H94.8a106.9,106.9,0,0,0-3.3-25.4l3.5-1A106.8,106.8,0,0,1,98.5,62.5Z"/><path class="cls-1" d="M25,94.1h3.7v22H25Z"/><path class="cls-1" d="M94.8,94.1h3.7v22H94.8Z"/><path class="cls-1" d="M61.7,180.3a2.1,2.1,0,0,1-1.1-.4l-35-28.1,2.3-2.8,33.9,27.1L88.2,155l2.3,2.9-27.6,22A2.8,2.8,0,0,1,61.7,180.3Z"/><path class="cls-1" d="M61.7,165.6a1.8,1.8,0,0,1-1.7-1.1L42.8,123l3.3-1.3L61.7,159l15.6-37.4,3.4,1.4L63.4,164.4a1.7,1.7,0,0,1-1.7,1.2Z"/><path class="cls-1" d="M61.8,143.8c-6,0-11.6-4-11.8-4.2l2.1-3c.1.1,4.9,3.5,9.7,3.5s9.5-3.4,9.5-3.4l2.2,3c-.2.1-5.7,4.1-11.7,4.1Z"/><path class="cls-1" d="M25,136.3h3.7v50H25Z"/><path class="cls-1" d="M13.3,137.8l6.5,40.8-3.6.6L9.6,138.4Z"/><path class="cls-1" d="M104.3,188.1H96.6a1.8,1.8,0,0,1-1.8-1.8v-50h3.7v48.1h4.3l7.4-46.7,3.7.6-7.8,48.3A1.7,1.7,0,0,1,104.3,188.1Z"/><path class="cls-1" d="M86.9,140.4a1.8,1.8,0,0,1-1.7-1.1,1.7,1.7,0,0,1,.3-1.9c0-.1,8.4-10.8,9.2-19.9a108.3,108.3,0,0,0-22-2.5v-3.7a104.5,104.5,0,0,1,24.4,3,2,2,0,0,1,1.4,1.8c0,7.4-4.8,15.8-7.8,20.3,5.7-1,10.5-4.2,14.5-9.6a37.7,37.7,0,0,0,5-9.8c-.4-4.2-4.4-43.9-4.4-70S88.1,3.7,61.7,3.7,17.6,21.1,17.6,47s-3.9,65.8-4.3,70a32.1,32.1,0,0,0,5,9.9c3.9,5.3,8.8,8.5,14.5,9.5-3-4.5-7.8-12.9-7.8-20.3a1.9,1.9,0,0,1,1.3-1.8,105.6,105.6,0,0,1,24.4-3V115a108.3,108.3,0,0,0-22,2.5c.9,9.1,9.2,19.8,9.3,19.9a1.9,1.9,0,0,1,.2,1.9,1.7,1.7,0,0,1-1.6,1.1c-8.5,0-15.9-4-21.4-11.5a40,40,0,0,1-5.6-11.2V117c0-.4,4.4-42.7,4.4-70,0-13.9,4.7-25.7,13.6-34.3S48.3,0,61.7,0,87.3,4.5,95.8,12.7,109.5,33.1,109.5,47c0,27.3,4.4,69.6,4.4,70a1.7,1.7,0,0,1-.1.7,37,37,0,0,1-5.6,11.2c-5.4,7.5-12.8,11.5-21.3,11.5Z"/><path class="cls-1" d="M59.9,163.9h3.7v14.7H59.9Z"/></svg>