<svg id="Capa_1" data-name="Capa 1" xmlns="http://www.w3.org/2000/svg" viewBox="0 0 125.4 182.4"><defs><style>.cls-1{fill:#7200ea;}</style></defs><g id="_30-Calculator" data-name=" 30-Calculator"><path class="cls-1" d="M122.5,62.7H2.8A2.9,2.9,0,0,1,0,59.8V14.2A14.3,14.3,0,0,1,14.2,0h96.9a14.3,14.3,0,0,1,14.3,14.2v8.6h-5.7V14.2a8.6,8.6,0,0,0-8.6-8.5H14.2a8.5,8.5,0,0,0-8.5,8.5V57h114V28.5h5.7V59.8A2.9,2.9,0,0,1,122.5,62.7Z"/><path class="cls-1" d="M0,74.1H5.7v5.7H0Z"/><path class="cls-1" d="M111.1,182.4H14.2A14.3,14.3,0,0,1,0,168.1V85.5H5.7v82.6a8.6,8.6,0,0,0,8.5,8.6h96.9a8.7,8.7,0,0,0,8.6-8.6V62.7H5.7v5.7H0V59.8A2.9,2.9,0,0,1,2.8,57H122.5a2.9,2.9,0,0,1,2.9,2.8V168.1A14.3,14.3,0,0,1,111.1,182.4Z"/><path class="cls-1" d="M105.4,51.3H19.9a2.9,2.9,0,0,1-2.8-2.9V25.6a2.9,2.9,0,0,1,2.8-2.8h85.5a2.9,2.9,0,0,1,2.9,2.8V48.4A2.9,2.9,0,0,1,105.4,51.3ZM22.8,45.6h79.8V28.5H22.8Z"/><path class="cls-1" d="M79.8,17.1H45.6a2.9,2.9,0,0,1-2.9-2.9V2.8A2.9,2.9,0,0,1,45.6,0H79.8a2.8,2.8,0,0,1,2.8,2.8V14.2A2.8,2.8,0,0,1,79.8,17.1ZM48.4,11.4H76.9V5.7H48.4Z"/><path class="cls-1" d="M108.3,171H96.9a5.7,5.7,0,0,1-5.7-5.7V142.5a5.6,5.6,0,0,1,5.7-5.7h11.4a5.7,5.7,0,0,1,5.7,5.7v22.8A5.8,5.8,0,0,1,108.3,171ZM96.9,142.5v22.8h11.4V142.5Z"/><path class="cls-1" d="M108.3,133.9H96.9a5.6,5.6,0,0,1-5.7-5.7v-5.7a5.7,5.7,0,0,1,5.7-5.7h11.4a5.8,5.8,0,0,1,5.7,5.7v5.7A5.7,5.7,0,0,1,108.3,133.9ZM96.9,122.5v5.7h11.4v-5.7Z"/><path class="cls-1" d="M108.3,114H96.9a5.7,5.7,0,0,1-5.7-5.7v-5.7a5.6,5.6,0,0,1,5.7-5.7h11.4a5.7,5.7,0,0,1,5.7,5.7v5.7A5.8,5.8,0,0,1,108.3,114ZM96.9,102.6v5.7h11.4v-5.7Z"/><path class="cls-1" d="M108.3,94H96.9a5.6,5.6,0,0,1-5.7-5.7V82.6a5.7,5.7,0,0,1,5.7-5.7h11.4a5.8,5.8,0,0,1,5.7,5.7v5.7A5.7,5.7,0,0,1,108.3,94ZM96.9,82.6v5.7h11.4V82.6Z"/><path class="cls-1" d="M82.6,171H76.9a5.8,5.8,0,0,1-5.7-5.7v-5.7a5.7,5.7,0,0,1,5.7-5.7h5.7a5.6,5.6,0,0,1,5.7,5.7v5.7A5.7,5.7,0,0,1,82.6,171Zm-5.7-11.4v5.7h5.7v-5.7Z"/><path class="cls-1" d="M82.6,151H76.9a5.7,5.7,0,0,1-5.7-5.7v-5.7a5.8,5.8,0,0,1,5.7-5.7h5.7a5.7,5.7,0,0,1,5.7,5.7v5.7A5.6,5.6,0,0,1,82.6,151Zm-5.7-11.4v5.7h5.7v-5.7Z"/><path class="cls-1" d="M82.6,131.1H76.9a5.8,5.8,0,0,1-5.7-5.7v-5.7a5.7,5.7,0,0,1,5.7-5.7h5.7a5.6,5.6,0,0,1,5.7,5.7v5.7A5.7,5.7,0,0,1,82.6,131.1Zm-5.7-11.4v5.7h5.7v-5.7Z"/><path class="cls-1" d="M82.6,111.1H76.9a5.7,5.7,0,0,1-5.7-5.7V99.7A5.8,5.8,0,0,1,76.9,94h5.7a5.7,5.7,0,0,1,5.7,5.7v5.7A5.6,5.6,0,0,1,82.6,111.1ZM76.9,99.7v5.7h5.7V99.7Z"/><path class="cls-1" d="M62.7,171H57a5.7,5.7,0,0,1-5.7-5.7v-5.7a5.6,5.6,0,0,1,5.7-5.7h5.7a5.7,5.7,0,0,1,5.7,5.7v5.7A5.8,5.8,0,0,1,62.7,171ZM57,159.6v5.7h5.7v-5.7Z"/><path class="cls-1" d="M62.7,151H57a5.6,5.6,0,0,1-5.7-5.7v-5.7a5.7,5.7,0,0,1,5.7-5.7h5.7a5.8,5.8,0,0,1,5.7,5.7v5.7A5.7,5.7,0,0,1,62.7,151ZM57,139.6v5.7h5.7v-5.7Z"/><path class="cls-1" d="M62.7,131.1H57a5.7,5.7,0,0,1-5.7-5.7v-5.7A5.6,5.6,0,0,1,57,114h5.7a5.7,5.7,0,0,1,5.7,5.7v5.7A5.8,5.8,0,0,1,62.7,131.1ZM57,119.7v5.7h5.7v-5.7Z"/><path class="cls-1" d="M62.7,111.1H57a5.6,5.6,0,0,1-5.7-5.7V99.7A5.7,5.7,0,0,1,57,94h5.7a5.8,5.8,0,0,1,5.7,5.7v5.7A5.7,5.7,0,0,1,62.7,111.1ZM57,99.7v5.7h5.7V99.7Z"/><path class="cls-1" d="M42.7,171H37a5.8,5.8,0,0,1-5.7-5.7v-5.7a5.7,5.7,0,0,1,5.7-5.7h5.7a5.6,5.6,0,0,1,5.7,5.7v5.7A5.7,5.7,0,0,1,42.7,171ZM37,159.6v5.7h5.7v-5.7Z"/><path class="cls-1" d="M42.7,151H37a5.7,5.7,0,0,1-5.7-5.7v-5.7a5.8,5.8,0,0,1,5.7-5.7h5.7a5.7,5.7,0,0,1,5.7,5.7v5.7A5.6,5.6,0,0,1,42.7,151ZM37,139.6v5.7h5.7v-5.7Z"/><path class="cls-1" d="M42.7,131.1H37a5.8,5.8,0,0,1-5.7-5.7v-5.7A5.7,5.7,0,0,1,37,114h5.7a5.6,5.6,0,0,1,5.7,5.7v5.7A5.7,5.7,0,0,1,42.7,131.1ZM37,119.7v5.7h5.7v-5.7Z"/><path class="cls-1" d="M42.7,111.1H37a5.7,5.7,0,0,1-5.7-5.7V99.7A5.8,5.8,0,0,1,37,94h5.7a5.7,5.7,0,0,1,5.7,5.7v5.7A5.6,5.6,0,0,1,42.7,111.1ZM37,99.7v5.7h5.7V99.7Z"/><path class="cls-1" d="M22.8,171H17.1a5.7,5.7,0,0,1-5.7-5.7v-5.7a5.6,5.6,0,0,1,5.7-5.7h5.7a5.7,5.7,0,0,1,5.7,5.7v5.7A5.8,5.8,0,0,1,22.8,171Zm-5.7-11.4v5.7h5.7v-5.7Z"/><path class="cls-1" d="M22.8,151H17.1a5.6,5.6,0,0,1-5.7-5.7v-5.7a5.7,5.7,0,0,1,5.7-5.7h5.7a5.8,5.8,0,0,1,5.7,5.7v5.7A5.7,5.7,0,0,1,22.8,151Zm-5.7-11.4v5.7h5.7v-5.7Z"/><path class="cls-1" d="M22.8,131.1H17.1a5.7,5.7,0,0,1-5.7-5.7v-5.7a5.6,5.6,0,0,1,5.7-5.7h5.7a5.7,5.7,0,0,1,5.7,5.7v5.7A5.8,5.8,0,0,1,22.8,131.1Zm-5.7-11.4v5.7h5.7v-5.7Z"/><path class="cls-1" d="M22.8,111.1H17.1a5.6,5.6,0,0,1-5.7-5.7V99.7A5.7,5.7,0,0,1,17.1,94h5.7a5.8,5.8,0,0,1,5.7,5.7v5.7A5.7,5.7,0,0,1,22.8,111.1ZM17.1,99.7v5.7h5.7V99.7Z"/><path class="cls-1" d="M74.1,82.6H85.5v5.7H74.1Z"/><path class="cls-1" d="M54.1,82.6H65.5v5.7H54.1Z"/><path class="cls-1" d="M34.2,82.6H45.6v5.7H34.2Z"/><path class="cls-1" d="M14.2,82.6H25.6v5.7H14.2Z"/><path class="cls-1" d="M19.9,68.4h85.5v5.7H19.9Z"/></g></svg>