<svg id="Capa_1" data-name="Capa 1" xmlns="http://www.w3.org/2000/svg" viewBox="0 0 136.6 136.6"><defs><style>.cls-1{fill:#7200ea;}</style></defs><g id="appointment-payment-date-time-money"><path class="cls-1" d="M82,50.1A13.7,13.7,0,1,0,95.6,36.4,13.6,13.6,0,0,0,82,50.1ZM95.6,41a9.1,9.1,0,1,1-9.1,9.1A9.1,9.1,0,0,1,95.6,41Z"/><path class="cls-1" d="M82,17.8a6.9,6.9,0,0,0,4.1-4.1h5V9.1H84.2A2.2,2.2,0,0,0,82,11.4a2.4,2.4,0,0,1-2.3,2.3,2.2,2.2,0,0,0-2.3,2.2v6.9H82Z"/><path class="cls-1" d="M109.3,17.8v5h4.5V15.9a2.2,2.2,0,0,0-2.2-2.2,2.3,2.3,0,0,1-2.3-2.3A2.3,2.3,0,0,0,107,9.1h-6.8v4.6h4.9A6.8,6.8,0,0,0,109.3,17.8Z"/><path class="cls-1" d="M136.6,100.2V54.6a2.3,2.3,0,0,0-.8-1.7l-12.9-11V4.6A4.5,4.5,0,0,0,118.4,0H72.9a4.5,4.5,0,0,0-4.6,4.6v91a4.6,4.6,0,0,0,4.6,4.6H93.3v9.1c0,.1.1.3.1.4l1.7,8.7H93.3a2.2,2.2,0,0,0-2.2,2.3v13.6a2.2,2.2,0,0,0,2.2,2.3h41a2.3,2.3,0,0,0,2.3-2.3V120.7a2.3,2.3,0,0,0-2.3-2.3h-1.7l3.9-17.7A1.1,1.1,0,0,0,136.6,100.2ZM91.2,70.7a7,7,0,0,0-1.5,5.5l1.7,10.3H86.1A7.1,7.1,0,0,0,82,82.3V77.4H77.4v6.8a2.3,2.3,0,0,0,2.3,2.3A2.3,2.3,0,0,1,82,88.8a2.3,2.3,0,0,0,2.2,2.3h8l.7,4.5h-20V4.6h45.5v91h-7.2L107.6,74a6.8,6.8,0,0,0-6.7-5.7H96.4A6.9,6.9,0,0,0,91.2,70.7ZM132,132H95.6v-9.1H132Zm0-32.1-4.1,18.5H99.8L97.9,109V97.5l-3.7-22a2.2,2.2,0,0,1,2.2-2.6h4.5a2.3,2.3,0,0,1,2.2,1.8L107,98.3a2.4,2.4,0,0,0,2.3,1.9h9.1a4.6,4.6,0,0,0,4.5-4.6V47.9l9.1,7.8Z"/><path class="cls-1" d="M31.9,4.6A31.9,31.9,0,1,0,63.7,36.4,31.8,31.8,0,0,0,31.9,4.6Zm0,59.1A27.3,27.3,0,1,1,59.2,36.4,27.3,27.3,0,0,1,31.9,63.7Z"/><path class="cls-1" d="M34.1,30V18.2H29.6V30a6.8,6.8,0,0,0,4.5,12.9,6.7,6.7,0,0,0,4.2-4.2h7.2V34.1H38.3A6.8,6.8,0,0,0,34.1,30Zm-2.2,8.7a2.3,2.3,0,0,1-2.3-2.3,2.3,2.3,0,1,1,4.5,0A2.2,2.2,0,0,1,31.9,38.7Z"/><path class="cls-1" d="M54.6,82H47.8V77.4H43.3V82H34.1V77.4H29.6V82H20.5V77.4H15.9V82H9.1a6.7,6.7,0,0,0-6.8,6.8v36.4A6.7,6.7,0,0,0,9.1,132H54.6a6.8,6.8,0,0,0,6.9-6.8V88.8A6.8,6.8,0,0,0,54.6,82ZM9.1,86.5h6.8v4.6h4.6V86.5h9.1v4.6h4.5V86.5h9.2v4.6h4.5V86.5h6.8a2.3,2.3,0,0,1,2.3,2.3v6.8H6.8V88.8A2.3,2.3,0,0,1,9.1,86.5Zm11.4,13.7h9.1v11.4H20.5Zm-4.6,11.4H6.8V100.2h9.1Zm13.7,4.5v11.4H20.5V116.1Zm4.5,0h9.2v11.4H34.1Zm0-4.5V100.2h9.2v11.4Zm13.7-11.4h9.1v11.4H47.8Zm-41,25v-9.1h9.1v11.4H9.1A2.3,2.3,0,0,1,6.8,125.2Zm47.8,2.3H47.8V116.1h9.1v9.1A2.3,2.3,0,0,1,54.6,127.5Z"/></g></svg>