<svg id="Capa_1" data-name="Capa 1" xmlns="http://www.w3.org/2000/svg" viewBox="0 0 96.3 89.8"><defs><style>.cls-1{fill:#7200ea;}</style></defs><path class="cls-1" d="M91.3,49.2l-6-8L93,12.1a1.5,1.5,0,0,0-1.1-1.8L78.8,6.9V1.5A1.5,1.5,0,0,0,77.3,0H10.1A1.5,1.5,0,0,0,8.6,1.5V12.3L1.2,13.5A1.6,1.6,0,0,0,0,15.3L7.5,58.1a2.1,2.1,0,0,0,.6,1,1.5,1.5,0,0,0,.9.2h.2l25.3-4.4,7.6,10.2H40.9a7.1,7.1,0,0,0-8.2,6.1,7.2,7.2,0,0,0,6.1,8.2H39a52.5,52.5,0,0,1,18.8,6.9A25.5,25.5,0,0,0,86,84.8,25.3,25.3,0,0,0,96,68.1,25.6,25.6,0,0,0,91.3,49.2ZM78.8,9.9l10.9,2.9L83,38.1l-.7-1a6.7,6.7,0,0,0-3.5-2.5V9.9ZM11.6,3H75.8V21.6l-.9-5a1.2,1.2,0,0,0-.6-1L57.9,4.1a2,2,0,0,0-1.1-.3L11.6,11.7Zm58,13-8.9,1.5L59.2,8.6ZM33.2,52.1l-23,4-7-39.9L55.9,7.1h0L58,19.5a1.6,1.6,0,0,0,1.5,1.3h.3l12.4-2.2L75,34.2a6.9,6.9,0,0,0-2.8,1.1,7.1,7.1,0,0,0-3,4.8,3.4,3.4,0,0,0-.1,1,7.6,7.6,0,0,0-6.3,1.2,7.2,7.2,0,0,0-2.6,3.6l-4.9-6.6a5.8,5.8,0,0,0-1.8-1.7A15.3,15.3,0,0,0,37.4,15.3a15.3,15.3,0,0,0-2,29.6A7.2,7.2,0,0,0,33.2,52.1ZM50.7,36.4a7.1,7.1,0,0,0-5.5,1.1,7.1,7.1,0,0,0-3,4.8v.1a12.3,12.3,0,1,1-4.2-24.2,12.4,12.4,0,0,1,14.2,10A12.3,12.3,0,0,1,50.7,36.4ZM93,67.7a22.4,22.4,0,0,1-33.6,16,55.7,55.7,0,0,0-19.9-7.4h-.3a4.3,4.3,0,0,1-3.6-4.8,4.2,4.2,0,0,1,4.2-3.6h.7l4.8.8a1.6,1.6,0,0,0,1.5-.8,1.4,1.4,0,0,0-.1-1.6L36.9,53.1a4.4,4.4,0,0,1,.6-6.1,4.5,4.5,0,0,1,3.2-.9,4.3,4.3,0,0,1,2.8,1.7l9.7,12.9,2.3,3.1,2,2.8a1.6,1.6,0,0,0,1.2.6,1.2,1.2,0,0,0,.9-.3,1.5,1.5,0,0,0,.3-2.1L46,46a4.3,4.3,0,0,1,.9-6,4.4,4.4,0,0,1,6,1.1l8.1,11,5.8,7.7a1.3,1.3,0,0,0,1.2.6l.9-.3a1.6,1.6,0,0,0,.3-2.1l-5.5-7.4a4.2,4.2,0,1,1,6.8-5L76,52.9a1.4,1.4,0,0,0,1.2.6,1.6,1.6,0,0,0,.9-.3,1.6,1.6,0,0,0,.3-2.1l-5.5-7.3a4.1,4.1,0,0,1-.7-3.2,4,4,0,0,1,1.7-2.8,4.4,4.4,0,0,1,6,1.1l9,12.1A22.5,22.5,0,0,1,93,67.7Z"/><path class="cls-1" d="M44,30.6a2.8,2.8,0,0,0-1.4-.9l-2.3-.6-1.6-.3-.7-.3a.5.5,0,0,1-.2-.4.8.8,0,0,1,.2-.7,2.3,2.3,0,0,1,1.2-.5h1.4l.9.2h.7a.7.7,0,0,0,.4-.5l.2-.5a1,1,0,0,0-.5-1.1,5.8,5.8,0,0,0-1.4-.3h-1v-.8a1.1,1.1,0,0,0-1.3-.9.8.8,0,0,0-.7.4,1,1,0,0,0-.2.9V25A4,4,0,0,0,36,26a2.9,2.9,0,0,0-.8,2.5,2.7,2.7,0,0,0,1.4,2,8.2,8.2,0,0,0,3.1.9l1.7.4a1,1,0,0,1,.6.3.5.5,0,0,1,.2.4.8.8,0,0,1-.2.7l-1.2.4H39.2a3.5,3.5,0,0,1-1.4-.6,1,1,0,0,0-1.2.3l-.4.6a1.5,1.5,0,0,0-.1.7,1,1,0,0,0,.4.5l1.9.7h1.2l.2.8a1,1,0,0,0,.5.8l.6.2h.2a.8.8,0,0,0,.7-.4,1,1,0,0,0,.2-.9v-.7A5.2,5.2,0,0,0,44,34.6a2.5,2.5,0,0,0,.7-2.5A2.6,2.6,0,0,0,44,30.6Z"/></svg>