<svg id="Layer_1" data-name="Layer 1" xmlns="http://www.w3.org/2000/svg" viewBox="0 0 621.51 621.51"><defs><style>.cls-1{fill:#430099;}.cls-2{fill:#fff;}</style></defs><circle class="cls-1" cx="310.75" cy="310.75" r="310.75"/><g id="_08_Credit_Card_Top_Up" data-name=" 08 Credit Card Top Up"><path class="cls-2" d="M474.31,253.06H420.93a120.41,120.41,0,0,0-5.28-109.62,6,6,0,0,0-.2-.6c-.11-.19-.36-.37-.52-.59a121.63,121.63,0,0,0-43.14-43.14,7.31,7.31,0,0,0-.59-.52,6,6,0,0,0-.6-.2,119.94,119.94,0,0,0-119.69,0,6,6,0,0,0-.6.2,7.31,7.31,0,0,0-.59.52,121.63,121.63,0,0,0-43.14,43.14,4.88,4.88,0,0,0-.52.59,6,6,0,0,0-.2.6,120.41,120.41,0,0,0-5.28,109.62H147.2a21.33,21.33,0,0,0-21.34,21.33v184.9a21.33,21.33,0,0,0,21.34,21.33H474.31a21.33,21.33,0,0,0,21.33-21.33V274.39A21.33,21.33,0,0,0,474.31,253.06Zm-61.06,99.56,28.45-28.45h22.56l-28.45,28.45Zm-42.66,0L399,324.17h22.56l-28.45,28.45Zm-42.67,0,28.44-28.45h22.56l-28.44,28.45Zm-42.67,0,28.45-28.45h22.55l-28.44,28.45Zm-42.66,0L271,324.17h22.56l-28.45,28.45Zm-42.67,0,28.44-28.45h22.56l-28.44,28.45Zm-42.67,0,28.45-28.45h22.55l-28.44,28.45Zm-17.16-28.45h25.5l-25.5,25.5Zm341.33,2.95v25.5h-25.5ZM215.14,156.29l12.33,7.11a91.67,91.67,0,0,0-8.8,32.77H204.45A105.73,105.73,0,0,1,215.14,156.29Zm3.56,54.1a91.61,91.61,0,0,0,8.8,32.77l-12.33,7.11a106.37,106.37,0,0,1-10.71-39.88Zm12.39,63.78c-.44-.49-.86-1-1.29-1.5q-2.78-3.26-5.3-6.72c-.35-.49-.71-1-1.08-1.48s-.77-1.24-1.18-1.85l12.32-7.11a93.26,93.26,0,0,0,27.13,26H238.22a98.81,98.81,0,0,1-7.15-7.34Zm1.44-70.89a78.23,78.23,0,1,1,78.22,78.23A78.22,78.22,0,0,1,232.53,203.28Zm85.33-92.08V97a105.52,105.52,0,0,1,39.88,10.67L350.63,120A91.58,91.58,0,0,0,317.86,111.2Zm-14.22,0a91.61,91.61,0,0,0-32.76,8.8l-7.11-12.33A105.73,105.73,0,0,1,303.64,97Zm113.42,85H402.84A91.52,91.52,0,0,0,394,163.42l12.34-7.11A105.64,105.64,0,0,1,417.06,196.17Zm-14.22,14.22h14.22a106.5,106.5,0,0,1-10.67,39.88l-12.34-7.11A91.6,91.6,0,0,0,402.84,210.39ZM387,255.5l12.32,7.11c-.4.61-.74,1.25-1.16,1.84s-.76,1-1.13,1.53c-1.65,2.27-3.38,4.48-5.21,6.62-.47.54-.92,1.08-1.43,1.62a97.52,97.52,0,0,1-7.11,7.28H359.82a93.2,93.2,0,0,0,27.15-26Zm12.36-111.57L387,151a93.57,93.57,0,0,0-24-24l7.11-12.36A107.38,107.38,0,0,1,399.33,143.93ZM251.42,114.71l7.11,12.36a93.29,93.29,0,0,0-24,24L222.17,144a107.45,107.45,0,0,1,29.23-29.24ZM147.2,267.28h61c1.64,2.64,3.39,5.2,5.22,7.69l.07.09q2.43,3.31,5.06,6.45H204.09a7.11,7.11,0,0,0,0,14.22H417.42a7.11,7.11,0,0,0,0-14.22H403c1.76-2.08,3.44-4.27,5.06-6.45l.08-.09c1.82-2.49,3.55-5.05,5.22-7.69h61a7.11,7.11,0,0,1,7.11,7.11V310H140.09V274.39A7.11,7.11,0,0,1,147.2,267.28ZM474.31,466.4H147.2a7.11,7.11,0,0,1-7.11-7.11V366.84H481.42v92.45A7.11,7.11,0,0,1,474.31,466.4Z"/><path class="cls-2" d="M161.42,409.51h28.44a7.12,7.12,0,1,0,0-14.23H161.42a7.12,7.12,0,0,0,0,14.23Z"/><path class="cls-2" d="M218.31,409.51h28.44a7.12,7.12,0,0,0,0-14.23H218.31a7.12,7.12,0,0,0,0,14.23Z"/><path class="cls-2" d="M275.2,409.51h28.44a7.12,7.12,0,0,0,0-14.23H275.2a7.12,7.12,0,0,0,0,14.23Z"/><path class="cls-2" d="M360.53,395.28H332.09a7.12,7.12,0,0,0,0,14.23h28.44a7.12,7.12,0,0,0,0-14.23Z"/><path class="cls-2" d="M360.53,438H161.42a7.11,7.11,0,1,0,0,14.22H360.53a7.11,7.11,0,0,0,0-14.22Z"/><path class="cls-2" d="M317.86,196.17H303.64a14.22,14.22,0,1,1,0-28.44h28.45a7.11,7.11,0,1,0,0-14.22H317.86v-7.12a7.11,7.11,0,0,0-14.22,0v7.12a28.44,28.44,0,1,0,0,56.88h14.22a14.23,14.23,0,1,1,0,28.45H289.42a7.11,7.11,0,1,0,0,14.22h14.22v7.11a7.11,7.11,0,1,0,14.22,0v-7.11a28.45,28.45,0,1,0,0-56.89Z"/><path class="cls-2" d="M438.75,395.28a28.32,28.32,0,0,0-14.22,3.89,28.44,28.44,0,1,0,0,49.12,28.44,28.44,0,1,0,14.22-53Zm-42.66,28.45a14.21,14.21,0,1,1,24.81,9.46,15.19,15.19,0,0,1-1.14,1.13,14.19,14.19,0,0,1-23.67-10.59ZM438.75,438a13.77,13.77,0,0,1-3.55-.45,14.78,14.78,0,0,0,.71-1.57c.14-.3.29-.58.43-.89a28.07,28.07,0,0,0,1.6-4.9c.08-.32.12-.65.19-1a28.43,28.43,0,0,0,.62-5.44,27.4,27.4,0,0,0-.57-5.42c-.07-.33-.12-.67-.19-1a28.23,28.23,0,0,0-1.58-4.84c-.15-.35-.31-.67-.48-1-.24-.5-.44-1-.71-1.5a14,14,0,0,1,3.53-.45,14.22,14.22,0,1,1,0,28.44Z"/></g></svg>