<svg id="Layer_1" data-name="Layer 1" xmlns="http://www.w3.org/2000/svg" viewBox="0 0 621.51 621.51"><defs><style>.cls-1{fill:#430099;}.cls-2{fill:#fff;}</style></defs><circle class="cls-1" cx="310.75" cy="310.75" r="310.75"/><path class="cls-2" d="M483.55,381a15.29,15.29,0,0,0-6.61,1.49,16.11,16.11,0,0,0-14.29-9.06,15.26,15.26,0,0,0-4.7.74v-202a6.23,6.23,0,0,0-1.68-4.27l-71-74.85a5.58,5.58,0,0,0-4.06-1.77H339a6,6,0,0,0,0,12.08h36.5V160.1c0,10,7.71,18.12,17.18,18.12h53.81V366.65a15.23,15.23,0,0,0-4.74-.76,15.39,15.39,0,0,0-4.72.74V336.58c0-11-8.51-20-19-20s-19,9-19,20v79.87l-7-8.23a32.74,32.74,0,0,0-25-11.8,10.9,10.9,0,0,0-9.53,5.72,12.17,12.17,0,0,0-.21,11.58l16.4,31.76a87.22,87.22,0,0,0,15.71,21.6l17,17v6.66H253.16a6,6,0,0,0,0,12.08H478.61a5.89,5.89,0,0,0,5.73-6V483.68c4.22-5.83,15.39-24.51,15.39-59.08V398.09c0-9.41-7.26-17.06-16.18-17.06ZM387,160.1V111.91l51.44,54.23H392.68A5.9,5.9,0,0,1,387,160.1ZM488.27,424.6c0,36.51-13.71,52.63-13.82,52.76a6.21,6.21,0,0,0-1.57,4.16v9.25H418v-9.25a6.23,6.23,0,0,0-1.78-4.38l-18.76-18.82a75,75,0,0,1-13.55-18.62l-16.1-31.19a21.56,21.56,0,0,1,15.8,7.75l16.82,19.87a5.62,5.62,0,0,0,4.27,2h.16a5.9,5.9,0,0,0,5.73-6V336.58a7.53,7.53,0,1,1,15,0V383A5.74,5.74,0,1,0,437,383a4.73,4.73,0,1,1,9.44,0v7.57a5.74,5.74,0,1,0,11.46,0,4.73,4.73,0,1,1,9.44,0v7.57a5.74,5.74,0,1,0,11.46,0,4.73,4.73,0,1,1,9.44,0V424.6Z"/><path class="cls-2" d="M230.25,490.77H188.38a5.9,5.9,0,0,1-5.73-6V109.41a5.9,5.9,0,0,1,5.73-6h127.7a6,6,0,0,0,0-12.08H188.38c-9.47,0-17.18,8.13-17.18,18.12V484.73c0,10,7.71,18.12,17.18,18.12h41.87a6,6,0,0,0,0-12.08Z"/><path class="cls-2" d="M405.81,227.6H222.88a6,6,0,0,0,0,12.08H405.81a6,6,0,0,0,0-12.08Z"/><path class="cls-2" d="M405.81,192.72H222.88a6,6,0,0,0,0,12.08H405.81a6,6,0,0,0,0-12.08Z"/><path class="cls-2" d="M380.61,373.16a5.88,5.88,0,0,0-5.73-6H300.82a6,6,0,0,0,0,12.08h74.06A5.89,5.89,0,0,0,380.61,373.16Z"/><path class="cls-2" d="M374.88,332.24h-152a6,6,0,0,0,0,12.08h152a6,6,0,0,0,0-12.08Z"/><path class="cls-2" d="M338.57,402H300.82a6,6,0,0,0,0,12.08h37.75a6,6,0,0,0,0-12.08Z"/><path class="cls-2" d="M338.57,436.88H300.82a6,6,0,0,0,0,12.08h37.75a6,6,0,0,0,0-12.08Z"/><path class="cls-2" d="M411.54,303.4V268.52a5.89,5.89,0,0,0-5.73-6H373.23a6,6,0,0,0,0,12.08h26.85v22.8H228.6v-22.8H350.31a6,6,0,0,0,0-12.08H222.88a5.88,5.88,0,0,0-5.73,6V303.4a5.88,5.88,0,0,0,5.73,6H405.81a5.89,5.89,0,0,0,5.73-6Z"/><path class="cls-2" d="M222.88,367.12a5.88,5.88,0,0,0-5.73,6v69.76a5.88,5.88,0,0,0,5.73,6h51.4a5.88,5.88,0,0,0,5.73-6V373.16a5.88,5.88,0,0,0-5.73-6Zm45.67,69.76h-40V379.2h40Z"/></svg>