<svg id="Layer_1" data-name="Layer 1" xmlns="http://www.w3.org/2000/svg" viewBox="0 0 621.51 621.51"><defs><style>.cls-1{fill:#430099;}.cls-2{fill:#fff;}</style></defs><circle class="cls-1" cx="310.75" cy="310.75" r="310.75"/><path class="cls-2" d="M329.87,461.48h-30c-8.64,0-15.67,7.52-15.67,16.76s7,16.75,15.67,16.75h30c8.64,0,15.67-7.51,15.67-16.75S338.51,461.48,329.87,461.48Zm0,20.43h-30a3.68,3.68,0,0,1,0-7.35h30a3.68,3.68,0,0,1,0,7.35ZM223.86,170a6.34,6.34,0,0,1,6.12-6.54H399.77a6.56,6.56,0,0,1,0,13.08H230A6.34,6.34,0,0,1,223.86,170Zm0,75a6.34,6.34,0,0,1,6.12-6.54H399.77a6.56,6.56,0,0,1,0,13.08H230A6.34,6.34,0,0,1,223.86,245Zm0-37.48a6.34,6.34,0,0,1,6.12-6.54H399.77a6.56,6.56,0,0,1,0,13.08H230A6.34,6.34,0,0,1,223.86,207.48Zm314.58-13.17-17.55-18.76a15.73,15.73,0,0,0-23.26,0L476.44,198.2V126.75c0-15.68-11.93-28.44-26.6-28.44H179.9c-14.66,0-26.59,12.76-26.59,28.44v360c0,15.67,11.93,28.43,26.59,28.43H449.84c14.67,0,26.6-12.76,26.6-28.43V285.46l62-66.28A18.49,18.49,0,0,0,538.44,194.31ZM382.77,367.11,359.25,342l115.4-123.36h0l10.76-11.51,23.52,25.14Zm60-133L346.29,337.33a6.58,6.58,0,0,0-1.42,2.41l-9.73,28.83a83.27,83.27,0,0,0-11.32,3.87c-5.86,2.36-10.91,4.39-15.38,3.09-5.3-1.53-10.68-7.9-16.46-19.46a6.14,6.14,0,0,0-4.58-3.39,5.89,5.89,0,0,0-5.25,2L265.77,373.1l-3.26-31.23a6.39,6.39,0,0,0-4.72-5.65,6,6,0,0,0-6.55,2.9l-19.72,33.7a16.09,16.09,0,0,1-14.26,8.45H205.87a6.56,6.56,0,0,0,0,13.08h11.39c10.23,0,19.21-5.32,24.63-14.59L252.3,362l2.76,26.55A6.47,6.47,0,0,0,259.2,394a5.68,5.68,0,0,0,1.94.35,6,6,0,0,0,4.44-2L285.42,370c6.21,10.26,12.61,16.11,19.82,18.19,8.27,2.4,15.7-.58,22.88-3.46l2.29-.91a13.37,13.37,0,0,0,3.5,10.42,11.67,11.67,0,0,0,8.54,3.82,11.54,11.54,0,0,0,4.17-.79l38.24-14.74a6.07,6.07,0,0,0,2.25-1.52l55.69-59.54V441.29H187v-307H442.8ZM353.1,353.89l18.52,19.8-29,11.17ZM464.21,486.76c0,8.46-6.45,15.35-14.37,15.35H179.9c-7.91,0-14.36-6.89-14.36-15.35v-360c0-8.47,6.45-15.36,14.36-15.36H449.84c7.92,0,14.37,6.89,14.37,15.36v84.53L455,221.09V127.74a6.34,6.34,0,0,0-6.12-6.54H180.83a6.34,6.34,0,0,0-6.11,6.54V447.83a6.34,6.34,0,0,0,6.11,6.54H448.91a6.34,6.34,0,0,0,6.12-6.54V308.35l9.18-9.81Zm65.58-276.82L517.58,223l-23.51-25.14,12.21-13a4,4,0,0,1,6,0l17.55,18.76a4.75,4.75,0,0,1,0,6.38Z"/></svg>