<svg id="Layer_1" data-name="Layer 1" xmlns="http://www.w3.org/2000/svg" viewBox="0 0 621.51 621.51"><defs><style>.cls-1{fill:#430099;}.cls-2{fill:#fff;}</style></defs><circle class="cls-1" cx="310.75" cy="310.75" r="310.75"/><path class="cls-2" d="M431.11,467.87l95.94-95.95-4.17-4.17a40.27,40.27,0,0,0-13.76-9l7.61-7.62L512.56,347a40.13,40.13,0,0,0-30.77-11.71,40,40,0,0,0-22.06-10.41l.25-.25C447.4,312,425.84,313.08,411.92,327l-18,18a46,46,0,0,0,.46-7.72l-.15-5.74H244.38l-59.25,59.25-9.58-9.58L124.75,432,228.87,536.17l50.8-50.8-9.44-9.44,8.06-8.06Zm35.65-128.79A39.94,39.94,0,0,0,455.62,347L410.9,391.66H385.12v11.79h30.67L464,355.28a28.52,28.52,0,0,1,35.66-3.73L495.2,356l-.79,0a40,40,0,0,0-28.48,11.79l-44.71,44.72H361a43.35,43.35,0,0,1-30.83-12.77l-16.4-16.41h35.75c.77,0,1.53,0,2.29-.05h43.72l38.66-38.66A28.51,28.51,0,0,1,466.76,339.08Zm-79.54,26,2.9.39,30.14-30.14a25.53,25.53,0,0,1,18.53-7.76,40.19,40.19,0,0,0-12.9,8.66l-35.2,35.2H379.91c.6-.54,1.18-1.1,1.74-1.69a45.85,45.85,0,0,0,4.11-4.85ZM228.87,519.49,141.43,432l34.12-34.12,1.24,1.25,0,0,85.1,85.1,0,0,1.1,1.1Zm33-51.9-68.42-68.42,55.79-55.8h133a33,33,0,0,1-30.77,28.08H311.23v.05H285.34L321.87,408a55.07,55.07,0,0,0,39.18,16.22h65.06l48.17-48.17A28.5,28.5,0,0,1,510,372.35l-83.73,83.73H273.4Z"/><rect class="cls-2" x="364.22" y="391.66" width="10.62" height="11.79"/><path class="cls-2" d="M184.9,420.3a16.32,16.32,0,1,0,0,23.08A16.23,16.23,0,0,0,184.9,420.3Zm-8.34,14.75a4.54,4.54,0,1,1,0-6.41A4.52,4.52,0,0,1,176.56,435.05Z"/><path class="cls-2" d="M348,179.34a53.33,53.33,0,1,0,53.32,53.33A53.39,53.39,0,0,0,348,179.34Zm0,94.86a41.53,41.53,0,1,1,41.52-41.53A41.58,41.58,0,0,1,348,274.2Z"/><path class="cls-2" d="M359.07,229.94a25.79,25.79,0,0,0-5.9-2q-3.15-.66-5.9-1.33a17,17,0,0,1-4.57-1.73,3.61,3.61,0,0,1-1.81-3.37,3,3,0,0,1,1.81-3.1,10.79,10.79,0,0,1,4.39-.8,19.93,19.93,0,0,1,14.46,5.5v-10.2q-2.12-2.35-10.38-3.46v-10.2c0-.18-.11-.27-.35-.27H343.1a.32.32,0,0,0-.35.36v10a24.79,24.79,0,0,0-5.55,3,12.3,12.3,0,0,0-4,4.33,12.81,12.81,0,0,0-1.19,5.85,9.87,9.87,0,0,0,1.81,6q3.23,4.41,10.52,6l5.94,1.34a19.24,19.24,0,0,1,4.56,1.54,3,3,0,0,1,1.83,2.8c0,2.22-1.41,3.75-4.23,4.62a20,20,0,0,1-5.35.53A17.7,17.7,0,0,1,338,243a15.64,15.64,0,0,1-6.21-6.65v12a47.35,47.35,0,0,0,11.36,5.06l.08,9.05c0,.18.09.26.27.26h7.72a.31.31,0,0,0,.35-.35V254q7.55-2.5,11.06-6.95a11.62,11.62,0,0,0,2.87-7.15Q365.46,233,359.07,229.94Z"/><path class="cls-2" d="M461.87,165.64V145.93H438.4V127.3H169.2V261.36h23.47V280h20.74V299.7h269.2V165.64Zm-269.2,83.93H181V139.09H426.6v6.84H192.67Zm20.74,18.63h-8.95V157.72H450.07v7.92H213.41Zm257.4,19.71H225.2V177.43H470.81V287.91Z"/><rect class="cls-2" x="192.67" y="317.47" width="11.79" height="12.87"/><rect class="cls-2" x="342.11" y="489.36" width="11.79" height="12.87"/><rect class="cls-2" x="481.25" y="445.83" width="11.79" height="12.87"/><rect class="cls-2" x="140.37" y="196.47" width="11.79" height="12.87"/><rect class="cls-2" x="130.76" y="296.94" width="11.79" height="12.87"/></svg>