<?xml version="1.0" encoding="utf-8"?>
<!-- Generator: Adobe Illustrator 25.4.1, SVG Export Plug-In . SVG Version: 6.00 Build 0)  -->
<svg version="1.1" id="Capa_1" xmlns="http://www.w3.org/2000/svg" xmlns:xlink="http://www.w3.org/1999/xlink" x="0px" y="0px"
	 viewBox="0 0 74.5 68.1" style="enable-background:new 0 0 74.5 68.1;" xml:space="preserve">
<style type="text/css">
	.st0{fill:#4C009E;}
</style>
<g>
	<g>
		<path class="st0" d="M37.2,47.8c-2.1,0-3.8,1.7-3.8,3.8c0,2.1,1.7,3.8,3.8,3.8c2,0,3.8-1.7,3.7-3.7C41.1,49.6,39.3,47.8,37.2,47.8
			z"/>
		<path class="st0" d="M72.6,61.4c2.4-4.1,2.4-9.1,0-13.2l-24-41.5C46.3,2.5,42,0,37.2,0s-9.1,2.5-11.5,6.6l-24,41.6
			c-2.4,4.2-2.4,9.2,0,13.3c2.4,4.1,6.7,6.6,11.4,6.6h47.9C65.9,68.1,70.2,65.6,72.6,61.4z M67.4,58.4c-1.3,2.3-3.7,3.7-6.3,3.7
			H13.2c-2.6,0-4.9-1.3-6.2-3.6c-1.3-2.3-1.3-5,0-7.3L31,9.6C32.3,7.3,34.6,6,37.2,6c2.6,0,5,1.4,6.3,3.6l24,41.5
			C68.8,53.4,68.8,56.1,67.4,58.4z"/>
		<path class="st0" d="M36.3,21c-1.8,0.5-3,2.2-3,4.2c0.1,1.2,0.2,2.4,0.3,3.6c0.3,4.6,0.5,9.1,0.8,13.7c0.1,1.6,1.3,2.7,2.9,2.7
			s2.8-1.2,2.9-2.8c0-0.9,0-1.8,0.1-2.8c0.2-3,0.4-5.9,0.5-8.9c0.1-1.9,0.3-3.8,0.4-5.7c0-0.7-0.1-1.3-0.4-1.9
			C39.9,21.4,38.1,20.5,36.3,21z"/>
	</g>
</g>
</svg>
