<?xml version="1.0" encoding="utf-8"?>
<!-- Generator: Adobe Illustrator 25.4.1, SVG Export Plug-In . SVG Version: 6.00 Build 0)  -->
<svg version="1.1" id="Layer_1" xmlns="http://www.w3.org/2000/svg" xmlns:xlink="http://www.w3.org/1999/xlink" x="0px" y="0px"
	 viewBox="0 0 71.1 71.1" style="enable-background:new 0 0 71.1 71.1;" xml:space="preserve">
<style type="text/css">
	.st0{fill:#4C009E;}
</style>
<g>
	<path class="st0" d="M45.2,20.9c0-0.7-0.5-1.2-1.2-1.2H10.8c-0.7,0-1.2-0.5-1.2-1.2v-8.3c0-0.7,0.5-1.2,1.2-1.2h34.4
		c0.7,0,1.2,0.5,1.2,1.2v5.8c0,0.7,0.5,1.2,1.2,1.2s1.2-0.5,1.2-1.2v-5.8c0-2-1.6-3.6-3.6-3.6H10.8c-2,0-3.6,1.6-3.6,3.6v8.3
		c0,2,1.6,3.6,3.6,3.6H44C44.6,22.1,45.2,21.6,45.2,20.9z"/>
	<path class="st0" d="M18.7,29.4c0-1.7-1.4-3.1-3.1-3.1h-5.2c-1.7,0-3.1,1.4-3.1,3.1V33c0,1.7,1.4,3.1,3.1,3.1h5.2
		c1.7,0,3.1-1.4,3.1-3.1V29.4z M16.3,33c0,0.4-0.3,0.8-0.8,0.8h-5.2c-0.4,0-0.8-0.3-0.8-0.8v-3.7c0-0.4,0.3-0.8,0.8-0.8h5.2
		c0.4,0,0.8,0.3,0.8,0.8V33z"/>
	<path class="st0" d="M33.6,29.4c0-1.7-1.4-3.1-3.1-3.1h-5.2c-1.7,0-3.1,1.4-3.1,3.1V33c0,1.7,1.4,3.1,3.1,3.1h5.2
		c1.7,0,3.1-1.4,3.1-3.1V29.4z M31.3,33c0,0.4-0.3,0.8-0.8,0.8h-5.2c-0.4,0-0.8-0.3-0.8-0.8v-3.7c0-0.4,0.3-0.8,0.8-0.8h5.2
		c0.4,0,0.8,0.3,0.8,0.8V33z"/>
	<path class="st0" d="M45.6,26.2h-5.2c-1.7,0-3.1,1.4-3.1,3.1V33c0,1.7,1.4,3.1,3.1,3.1h5.2c1.7,0,3.1-1.4,3.1-3.1v-3.7
		C48.8,27.6,47.4,26.2,45.6,26.2z M46.4,33c0,0.4-0.3,0.8-0.8,0.8h-5.2c-0.4,0-0.8-0.3-0.8-0.8v-3.7c0-0.4,0.3-0.8,0.8-0.8h5.2
		c0.4,0,0.8,0.3,0.8,0.8V33z"/>
	<path class="st0" d="M18.7,43.6c0-1.7-1.4-3.1-3.1-3.1h-5.2c-1.7,0-3.1,1.4-3.1,3.1v3.7c0,1.7,1.4,3.1,3.1,3.1h5.2
		c1.7,0,3.1-1.4,3.1-3.1V43.6z M16.3,47.3c0,0.4-0.3,0.8-0.8,0.8h-5.2c-0.4,0-0.8-0.3-0.8-0.8v-3.7c0-0.4,0.3-0.8,0.8-0.8h5.2
		c0.4,0,0.8,0.3,0.8,0.8V47.3z"/>
	<path class="st0" d="M33.6,43.6c0-1.7-1.4-3.1-3.1-3.1h-5.2c-1.7,0-3.1,1.4-3.1,3.1v3.7c0,1.7,1.4,3.1,3.1,3.1h5.2
		c1.7,0,3.1-1.4,3.1-3.1V43.6z M31.3,47.3c0,0.4-0.3,0.8-0.8,0.8h-5.2c-0.4,0-0.8-0.3-0.8-0.8v-3.7c0-0.4,0.3-0.8,0.8-0.8h5.2
		c0.4,0,0.8,0.3,0.8,0.8V47.3z"/>
	<path class="st0" d="M15.5,54.7h-5.2c-1.7,0-3.1,1.4-3.1,3.1v3.7c0,1.7,1.4,3.1,3.1,3.1h5.2c1.7,0,3.1-1.4,3.1-3.1v-3.7
		C18.7,56.1,17.3,54.7,15.5,54.7z M16.3,61.5c0,0.4-0.3,0.8-0.8,0.8h-5.2c-0.4,0-0.8-0.3-0.8-0.8v-3.7c0-0.4,0.3-0.8,0.8-0.8h5.2
		c0.4,0,0.8,0.3,0.8,0.8V61.5z"/>
	<path class="st0" d="M30.5,54.7h-5.2c-1.7,0-3.1,1.4-3.1,3.1v3.7c0,1.7,1.4,3.1,3.1,3.1h5.2c1.7,0,3.1-1.4,3.1-3.1v-3.7
		C33.6,56.1,32.2,54.7,30.5,54.7z M31.3,61.5c0,0.4-0.3,0.8-0.8,0.8h-5.2c-0.4,0-0.8-0.3-0.8-0.8v-3.7c0-0.4,0.3-0.8,0.8-0.8h5.2
		c0.4,0,0.8,0.3,0.8,0.8V61.5z"/>
	<path class="st0" d="M55.4,44.9c0-0.7-0.5-1.2-1.2-1.2s-1.2,0.5-1.2,1.2v1.5c-2.5,0.4-4.4,2.3-4.4,4.5c0,3.5,3.1,4.1,5.4,4.6
		c2.6,0.5,3.5,0.9,3.5,2.3c0,1.2-1.5,2.2-3.2,2.2c-1.2,0-2.3-0.5-2.9-1.2c-0.4-0.5-1.1-0.6-1.7-0.2c-0.5,0.4-0.6,1.1-0.2,1.7
		c0.8,1.1,2.1,1.8,3.6,2.1v1.5c0,0.7,0.5,1.2,1.2,1.2s1.2-0.5,1.2-1.2v-1.5c2.5-0.4,4.4-2.3,4.4-4.5c0-3.5-3.1-4.1-5.4-4.6
		c-2.6-0.5-3.5-0.9-3.5-2.3c0-1.2,1.5-2.2,3.2-2.2c1.2,0,2.3,0.5,2.9,1.2c0.4,0.5,1.1,0.6,1.7,0.2c0.5-0.4,0.6-1.1,0.2-1.7
		c-0.8-1.1-2.1-1.8-3.6-2.1L55.4,44.9z"/>
	<path class="st0" d="M61.8,39.1c-0.6-0.3-1.3-0.1-1.6,0.5c-0.3,0.6-0.1,1.3,0.5,1.6c4.9,2.5,8,7.5,8,13c0,8-6.5,14.5-14.5,14.5
		s-14.5-6.5-14.5-14.5s6.5-14.5,14.5-14.5c0.5,0,0.8,0.1,1.2-0.2c0.4-0.2,0.6-0.6,0.6-1c0,0,0-32.6,0-32.7C56,2.7,53.4,0,50.1,0H5.9
		C2.7,0,0,2.7,0,5.9v59.3c0,3.3,2.7,5.9,5.9,5.9h33.4c0.7,0,1.2-0.5,1.2-1.2c0-0.7-0.5-1.2-1.2-1.2H5.9c-2,0-3.6-1.6-3.6-3.6V5.9
		c0-2,1.6-3.6,3.6-3.6h44.2c2,0,3.6,1.6,3.6,3.6v31.4c-9,0.3-16.3,7.8-16.3,16.9c0,9.3,7.6,16.9,16.9,16.9s16.9-7.6,16.9-16.9
		C71.1,47.8,67.6,42,61.8,39.1z"/>
	<path class="st0" d="M41.5,17.8c0.7,0,1.2-0.5,1.2-1.2v-4.4c0-0.7-0.5-1.2-1.2-1.2h-1.2c-0.7,0-1.2,0.5-1.2,1.2
		c0,0.7,0.5,1.2,1.2,1.2v3.3C40.3,17.3,40.8,17.8,41.5,17.8z"/>
</g>
</svg>
