<?xml version="1.0" encoding="utf-8"?>
<!-- Generator: Adobe Illustrator 25.4.1, SVG Export Plug-In . SVG Version: 6.00 Build 0)  -->
<svg version="1.1" id="Capa_1" xmlns="http://www.w3.org/2000/svg" xmlns:xlink="http://www.w3.org/1999/xlink" x="0px" y="0px"
	 viewBox="0 0 75.4 75.4" style="enable-background:new 0 0 75.4 75.4;" xml:space="preserve">
<style type="text/css">
	.st0{fill:#4C009E;}
</style>
<g>
	<g>
		<g>
			<path class="st0" d="M51,47c-0.8,0-1.5,0.7-1.5,1.5v10.2c0,4.1-3.3,7.4-7.4,7.4H26.2c-0.8,0-1.5,0.7-1.5,1.5l0,2.9l-3.5-3.5
				C21,66.3,20.5,66,19.9,66h-9.6c-4.1,0-7.4-3.3-7.4-7.4V35.9c0-4.1,3.3-7.4,7.4-7.4h14.9c0.8,0,1.5-0.7,1.5-1.5s-0.7-1.5-1.5-1.5
				H10.3C4.6,25.6,0,30.3,0,35.9v22.7c0,5.7,4.6,10.3,10.3,10.3h8.8l6,6c0.3,0.3,0.7,0.4,1,0.4c0.2,0,0.4,0,0.6-0.1
				c0.6-0.2,0.9-0.8,0.9-1.4l0-5h14.4c5.7,0,10.3-4.6,10.3-10.3V48.5C52.4,47.6,51.8,47,51,47z"/>
		</g>
	</g>
	<g>
		<g>
			<path class="st0" d="M54,0h-3.7C38.5,0,28.9,9.6,28.9,21.4s9.6,21.4,21.4,21.4H54c1.8,0,3.7-0.2,5.4-0.7l5.5,5.5
				c0.3,0.3,0.7,0.4,1,0.4c0.2,0,0.4,0,0.6-0.1c0.6-0.2,0.9-0.8,0.9-1.4v-8.5c2.3-1.9,4.3-4.3,5.6-6.9c1.5-3,2.3-6.3,2.3-9.7
				C75.4,9.6,65.8,0,54,0z M65.1,36.2c-0.4,0.3-0.6,0.7-0.6,1.2V43l-3.6-3.6c-0.3-0.3-0.7-0.4-1-0.4c-0.1,0-0.3,0-0.4,0.1
				c-1.8,0.5-3.6,0.8-5.4,0.8h-3.7c-10.2,0-18.5-8.3-18.5-18.5S40.1,2.9,50.3,2.9H54c10.2,0,18.5,8.3,18.5,18.5
				C72.5,27.3,69.8,32.6,65.1,36.2z"/>
		</g>
	</g>
	<g>
		<g>
			<path class="st0" d="M58.8,16.1c-0.2-3.1-2.7-5.6-5.8-5.8c-1.7-0.1-3.4,0.5-4.7,1.7c-1.3,1.2-2,2.8-2,4.6c0,0.8,0.7,1.5,1.5,1.5
				s1.5-0.7,1.5-1.5c0-0.9,0.4-1.8,1-2.4c0.7-0.6,1.6-0.9,2.5-0.9c1.6,0.1,2.9,1.4,3,3c0.1,1.6-1,3.1-2.6,3.4
				c-1.3,0.3-2.2,1.4-2.2,2.7V26c0,0.8,0.7,1.5,1.5,1.5c0.8,0,1.5-0.7,1.5-1.5v-3.4C57,21.9,59,19.2,58.8,16.1z"/>
		</g>
	</g>
	<g>
		<g>
			<path class="st0" d="M53.6,30.8c-0.3-0.3-0.7-0.4-1-0.4c-0.4,0-0.8,0.2-1,0.4c-0.3,0.3-0.4,0.7-0.4,1c0,0.4,0.2,0.8,0.4,1
				c0.3,0.3,0.7,0.4,1,0.4c0.4,0,0.8-0.2,1-0.4c0.3-0.3,0.4-0.7,0.4-1C54,31.5,53.9,31.1,53.6,30.8z"/>
		</g>
	</g>
	<g>
		<g>
			<path class="st0" d="M40.5,45.7H9.4c-0.8,0-1.5,0.7-1.5,1.5c0,0.8,0.7,1.5,1.5,1.5h31.1c0.8,0,1.5-0.7,1.5-1.5
				C42,46.3,41.3,45.7,40.5,45.7z"/>
		</g>
	</g>
	<g>
		<g>
			<path class="st0" d="M41.5,54.3c-0.3-0.3-0.7-0.4-1-0.4c-0.4,0-0.8,0.2-1,0.4c-0.3,0.3-0.4,0.7-0.4,1c0,0.4,0.2,0.8,0.4,1
				c0.3,0.3,0.7,0.4,1,0.4c0.4,0,0.8-0.2,1-0.4c0.3-0.3,0.4-0.7,0.4-1C42,55,41.8,54.6,41.5,54.3z"/>
		</g>
	</g>
	<g>
		<g>
			<path class="st0" d="M34.7,53.9H9.4c-0.8,0-1.5,0.7-1.5,1.5c0,0.8,0.7,1.5,1.5,1.5h25.3c0.8,0,1.5-0.7,1.5-1.5
				C36.2,54.6,35.5,53.9,34.7,53.9z"/>
		</g>
	</g>
	<g>
		<g>
			<path class="st0" d="M30.9,37.4H9.4c-0.8,0-1.5,0.7-1.5,1.5c0,0.8,0.7,1.5,1.5,1.5h21.5c0.8,0,1.5-0.7,1.5-1.5
				C32.4,38.1,31.7,37.4,30.9,37.4z"/>
		</g>
	</g>
</g>
</svg>
