<?xml version="1.0" encoding="utf-8"?>
<!-- Generator: Adobe Illustrator 25.4.1, SVG Export Plug-In . SVG Version: 6.00 Build 0)  -->
<svg version="1.1" id="svg1089" xmlns:svg="http://www.w3.org/2000/svg"
	 xmlns="http://www.w3.org/2000/svg" xmlns:xlink="http://www.w3.org/1999/xlink" x="0px" y="0px" viewBox="0 0 75 75"
	 style="enable-background:new 0 0 75 75;" xml:space="preserve">
<style type="text/css">
	.st0{fill:#4C009E;}
</style>
<g id="g1095" transform="matrix(1.3333333,0,0,-1.3333333,0,682.66667)">
	<g id="g1097">
		<g>
			<g id="g1099">
				<g id="g1105" transform="translate(20,332.0356)">
					<g id="path1107">
						<path class="st0" d="M34,158c-0.4,0-0.9,0.1-1.3,0.4L9.4,175.2c-0.4,0.3-0.8,0.4-1.3,0.4c-0.5,0-0.9-0.1-1.3-0.4l-23.4-16.8
							c-1-0.7-2.4-0.5-3.1,0.5c-0.7,1-0.5,2.4,0.5,3.1l23.4,16.8c0,0,0,0,0,0c1.1,0.8,2.4,1.2,3.8,1.2c1.4,0,2.7-0.4,3.8-1.2
							c0,0,0,0,0,0L35.3,162c1-0.7,1.2-2.1,0.5-3.1C35.4,158.3,34.7,158,34,158z"/>
					</g>
				</g>
				<g id="g1109" transform="translate(278.9956,384.77)">
					<g id="path1111">
						<path class="st0" d="M-233.7,71h-12.7c-1.2,0-2.2,1-2.2,2.2V82c0,1.2-1,2.2-2.2,2.2s-2.2-1-2.2-2.2v-8.8c0-1.2-1-2.2-2.2-2.2
							H-268c-3.6,0-6.6,3-6.6,6.6v19.7c0,2.1,1,4.1,2.8,5.4l17.1,12.4c0,0,0,0,0,0c1.1,0.8,2.4,1.2,3.8,1.2c1.4,0,2.7-0.4,3.8-1.2
							c0,0,0,0,0,0l17.1-12.4c1.7-1.2,2.8-3.2,2.8-5.4V77.6C-227.2,73.9-230.1,71-233.7,71z M-244.3,75.4h10.5c1.2,0,2.2,1,2.2,2.2
							v19.7c0,0.7-0.3,1.4-0.9,1.8c0,0,0,0,0,0l-17.1,12.4c-0.4,0.3-0.8,0.4-1.3,0.4c-0.5,0-0.9-0.1-1.3-0.4l-17.1-12.4c0,0,0,0,0,0
							c-0.6-0.4-0.9-1.1-0.9-1.8V77.6c0-1.2,1-2.2,2.2-2.2h10.5V82c0,3.6,3,6.6,6.6,6.6c3.6,0,6.6-3,6.6-6.6V75.4z"/>
					</g>
				</g>
			</g>
		</g>
	</g>
</g>
</svg>
