<?xml version="1.0" encoding="utf-8"?>
<!-- Generator: Adobe Illustrator 25.4.1, SVG Export Plug-In . SVG Version: 6.00 Build 0)  -->
<svg version="1.1" id="Capa_1" xmlns="http://www.w3.org/2000/svg" xmlns:xlink="http://www.w3.org/1999/xlink" x="0px" y="0px"
	 viewBox="0 0 54 47.2" style="enable-background:new 0 0 54 47.2;" xml:space="preserve">
<style type="text/css">
	.st0{fill:#4C009E;}
</style>
<g>
	<g id="Layer_1">
		<g>
			<g id="LINE_34_">
				<g>
					<path class="st0" d="M48.3,27.7c-0.4,0-0.8-0.3-0.9-0.7c-0.2-0.5,0.1-1.1,0.6-1.3l3.2-1.2c0.5-0.2,1.1,0.1,1.3,0.6
						c0.2,0.5-0.1,1.1-0.6,1.3l-3.2,1.2C48.6,27.7,48.4,27.7,48.3,27.7z"/>
				</g>
			</g>
			<g id="LINE_35_">
				<g>
					<path class="st0" d="M28.4,21.2c-0.4,0-0.8-0.3-0.9-0.7c-0.2-0.5,0.1-1.1,0.6-1.3l6.5-2.4c0.5-0.2,1.1,0.1,1.3,0.6
						c0.2,0.5-0.1,1.1-0.6,1.3l-6.5,2.4C28.6,21.1,28.5,21.2,28.4,21.2z"/>
				</g>
			</g>
			<g id="LINE_36_">
				<g>
					<path class="st0" d="M39,17.3c-0.4,0-0.8-0.3-0.9-0.7c-0.2-0.5,0.1-1.1,0.6-1.3l6.1-2.2c0.5-0.2,1.1,0.1,1.3,0.6
						c0.2,0.5-0.1,1.1-0.6,1.3l-6.1,2.2C39.2,17.3,39.1,17.3,39,17.3z"/>
				</g>
			</g>
			<g id="LINE_37_">
				<g>
					<path class="st0" d="M20.5,40.7H5.3c-0.6,0-1-0.4-1-1s0.4-1,1-1h15.2c0.6,0,1,0.4,1,1S21.1,40.7,20.5,40.7z"/>
				</g>
			</g>
			<g id="LINE_38_">
				<g>
					<path class="st0" d="M11.8,36.3H5.3c-0.6,0-1-0.4-1-1s0.4-1,1-1h6.5c0.6,0,1,0.4,1,1S12.4,36.3,11.8,36.3z"/>
				</g>
			</g>
			<g id="ARC_13_">
				<g>
					<path class="st0" d="M36.7,42.8c-1,0-1.9-0.3-2.6-0.9c-0.4-0.3-0.5-1-0.1-1.4c0.3-0.4,1-0.5,1.4-0.1c0.6,0.5,1.5,0.6,2.3,0.3
						c0.8-0.3,1.3-1,1.4-1.8c0.1-1.1-0.5-1.8-1.2-2.2c-0.6-0.3-1.6-0.5-2.5,0.2c-0.4,0.3-1.1,0.3-1.4-0.1c-0.3-0.4-0.3-1.1,0.1-1.4
						c1.3-1.1,3.1-1.2,4.7-0.4c1.6,0.8,2.4,2.4,2.2,4.1c-0.2,1.5-1.2,2.9-2.6,3.5C37.8,42.7,37.3,42.8,36.7,42.8z"/>
				</g>
			</g>
			<g id="CIRCLE_1_">
				<g>
					<path class="st0" d="M32.6,42.7c-2.1,0-4.2-1.4-4.2-4.1s2.1-4.1,4.2-4.1s4.2,1.4,4.2,4.1S34.8,42.7,32.6,42.7z M32.6,36.4
						c-0.8,0-2.2,0.5-2.2,2.1s1.4,2.1,2.2,2.1s2.2-0.5,2.2-2.1S33.5,36.4,32.6,36.4z"/>
				</g>
			</g>
			<g id="LINE_39_">
				<g>
					<path class="st0" d="M5.5,20.3c-0.4,0-0.8-0.3-0.9-0.7c-0.2-0.5,0.1-1.1,0.6-1.3L45.9,3.5c0.5-0.2,1.1,0.1,1.3,0.6
						c0.2,0.5-0.1,1.1-0.6,1.3L5.8,20.2C5.7,20.3,5.6,20.3,5.5,20.3z"/>
				</g>
			</g>
			<g id="LINE_40_">
				<g>
					<path class="st0" d="M15.7,21.2c-0.4,0-0.8-0.3-0.9-0.7c-0.2-0.5,0.1-1.1,0.6-1.3l32-11.6c0.5-0.2,1.1,0.1,1.3,0.6
						c0.2,0.5-0.1,1.1-0.6,1.3l-32,11.6C16,21.1,15.8,21.2,15.7,21.2z"/>
				</g>
			</g>
			<g id="LWPOLYLINE_3_">
				<g>
					<path class="st0" d="M5.8,21.2c-0.4,0-0.8-0.3-0.9-0.7l-1.1-2.9c-0.3-0.8-0.3-1.7,0.1-2.4s1-1.3,1.8-1.6L42.3,0.2
						c0.5-0.2,1.1,0.1,1.3,0.6c0.2,0.5-0.1,1.1-0.6,1.3L6.4,15.4c-0.3,0.1-0.5,0.3-0.7,0.6c-0.1,0.3-0.1,0.6,0,0.9l1.1,2.9
						c0.2,0.5-0.1,1.1-0.6,1.3C6,21.1,5.9,21.2,5.8,21.2z"/>
				</g>
			</g>
			<g id="ARC_14_">
				<g>
					<path class="st0" d="M51.6,26.6c-0.4,0-0.8-0.3-0.9-0.7c-0.2-0.5,0.1-1.1,0.6-1.3c0.3-0.1,0.5-0.3,0.7-0.6s0.1-0.6,0-0.9
						c-0.2-0.5,0.1-1.1,0.6-1.3c0.5-0.2,1.1,0.1,1.3,0.6c0.3,0.8,0.3,1.7-0.1,2.4s-1,1.3-1.8,1.6C51.8,26.5,51.7,26.6,51.6,26.6z"/>
				</g>
			</g>
			<g id="ARC_15_">
				<g>
					<path class="st0" d="M45.5,3.4c-0.4,0-0.8-0.3-0.9-0.7c-0.1-0.3-0.3-0.5-0.6-0.7C43.6,2,43.3,2,43,2.1
						c-0.5,0.2-1.1-0.1-1.3-0.6c-0.2-0.5,0.1-1.1,0.6-1.3c0.8-0.3,1.7-0.2,2.4,0.1c0.8,0.4,1.3,1,1.6,1.8c0.2,0.5-0.1,1.1-0.6,1.3
						C45.7,3.4,45.6,3.4,45.5,3.4z"/>
				</g>
			</g>
			<g id="LINE_41_">
				<g>
					<path class="st0" d="M52.9,23.8c-0.4,0-0.8-0.3-0.9-0.7L44.5,2.8c-0.2-0.5,0.1-1.1,0.6-1.3c0.5-0.2,1.1,0.1,1.3,0.6l7.4,20.4
						c0.2,0.5-0.1,1.1-0.6,1.3C53.1,23.8,53,23.8,52.9,23.8z"/>
				</g>
			</g>
			<g id="LWPOLYLINE_4_">
				<g>
					<path class="st0" d="M11.8,32H5.3c-0.6,0-1-0.4-1-1v-6.5c0-0.6,0.4-1,1-1h6.5c0.6,0,1,0.4,1,1V31C12.8,31.6,12.4,32,11.8,32z
						 M6.3,30h4.5v-4.5H6.3V30z"/>
				</g>
			</g>
			<g id="LINE_42_">
				<g>
					<path class="st0" d="M44.3,45c-0.6,0-1-0.4-1-1V22.3c0-0.6,0.4-1,1-1s1,0.4,1,1V44C45.3,44.6,44.9,45,44.3,45z"/>
				</g>
			</g>
			<g id="ARC_16_">
				<g>
					<path class="st0" d="M44.3,23.3c-0.6,0-1-0.4-1-1c0-0.6-0.5-1.2-1.2-1.2c-0.6,0-1-0.4-1-1s0.4-1,1-1c1.7,0,3.2,1.4,3.2,3.2
						C45.3,22.9,44.9,23.3,44.3,23.3z"/>
				</g>
			</g>
			<g id="ARC_17_">
				<g>
					<path class="st0" d="M42.2,47.2c-0.6,0-1-0.4-1-1s0.4-1,1-1c0.6,0,1.2-0.5,1.2-1.2c0-0.6,0.4-1,1-1s1,0.4,1,1
						C45.3,45.7,43.9,47.2,42.2,47.2z"/>
				</g>
			</g>
			<g id="LWPOLYLINE_5_">
				<g>
					<path class="st0" d="M42.2,47.2h-39C1.4,47.2,0,45.7,0,44V22.3c0-1.7,1.4-3.2,3.2-3.2h39c0.6,0,1,0.4,1,1s-0.4,1-1,1h-39
						c-0.6,0-1.2,0.5-1.2,1.2V44c0,0.6,0.5,1.2,1.2,1.2h39c0.6,0,1,0.4,1,1S42.7,47.2,42.2,47.2z"/>
				</g>
			</g>
		</g>
	</g>
</g>
</svg>
