<?xml version="1.0" encoding="utf-8"?>
<!-- Generator: Adobe Illustrator 25.4.1, SVG Export Plug-In . SVG Version: 6.00 Build 0)  -->
<svg version="1.1" id="Capa_1" xmlns="http://www.w3.org/2000/svg" xmlns:xlink="http://www.w3.org/1999/xlink" x="0px" y="0px"
	 viewBox="0 0 56.5 90.4" style="enable-background:new 0 0 56.5 90.4;" xml:space="preserve">
<style type="text/css">
	.st0{fill:#4C009E;}
</style>
<g id="_04-Smiling">
	<path class="st0" d="M46.6,50.9h-1.4v-2.8h1.4c3,0,5.7-3.9,5.7-7.1v-1.4c0-0.8-0.6-1.4-1.4-1.4h-1.4v-2.8h1.4
		c2.3,0,4.2,1.9,4.2,4.2V41C55.1,45.6,51.4,50.9,46.6,50.9z"/>
	<path class="st0" d="M11.3,50.9H9.9c-4.8,0-8.5-5.3-8.5-9.9v-1.4c0-2.3,1.9-4.2,4.2-4.2h1.4v2.8H5.7c-0.8,0-1.4,0.6-1.4,1.4V41
		c0,3.2,2.6,7.1,5.7,7.1h1.4V50.9z"/>
	<path class="st0" d="M43.1,90.4H13.4c-4.4,0-8.7-1-12.6-3C0.3,87.2,0,86.7,0,86.2v-4.7c0-2.9,1.8-5.5,4.4-6.6l15.9-6.3
		c0.5-0.2,0.9-0.7,0.9-1.3v-8H24v8c0,1.7-1.1,3.3-2.7,3.9L5.5,77.6c-1.6,0.6-2.7,2.2-2.7,3.9v3.8c3.3,1.5,6.9,2.3,10.6,2.3h29.8
		c3.6,0,7.2-0.8,10.6-2.3v-3.8c0-1.7-1.1-3.3-2.7-3.9l-15.9-6.3c-1.6-0.6-2.7-2.2-2.7-3.9v-8h2.8v8c0,0.6,0.4,1.1,0.9,1.3L52.1,75
		c2.7,1.1,4.5,3.7,4.4,6.6v4.7c0,0.5-0.3,1-0.8,1.3C51.8,89.4,47.5,90.4,43.1,90.4z"/>
	<path class="st0" d="M55.1,77.7h-2.8V25.4c0-12.5-10.8-22.6-24-22.6S4.2,13,4.2,25.4v52.3H1.4V25.4c0-14,12-25.4,26.9-25.4
		s26.9,11.4,26.9,25.4V77.7z"/>
	<path class="st0" d="M28.3,62.2c-12.9,0-22.6-14.9-22.6-28.3v-4.2c0-0.8,0.6-1.4,1.4-1.4c15.8,0,29.7-5.3,29.7-11.3
		c0-0.8,0.6-1.4,1.4-1.4c0.6,0,1.1,0.4,1.3,1c1.1,3.4,3.3,5.1,5.5,6.9c2.9,2.3,5.9,4.7,5.9,10.5C50.9,47.3,41.2,62.2,28.3,62.2z
		 M8.5,31.1v2.8c0,14.6,10.4,25.4,19.8,25.4s19.8-10.9,19.8-25.4c0-4.5-2.1-6.2-4.8-8.3c-1.8-1.3-3.5-3-4.8-4.8
		C34.6,27.1,21.5,30.8,8.5,31.1z"/>
	<path class="st0" d="M28.3,73.5c-4,0-7.1-2.4-7.1-5.7H24c0,1.6,1.8,2.8,4.2,2.8s4.2-1.2,4.2-2.8h2.8C35.3,71.1,32.3,73.5,28.3,73.5
		z"/>
	<path class="st0" d="M28.3,55.1c-4-0.1-7.5-2.8-8.4-6.7c-0.2-0.8,0.3-1.5,1-1.7c0.1,0,0.2,0,0.3,0h14.1c0.8,0,1.4,0.6,1.4,1.4
		c0,0.1,0,0.2,0,0.3C35.7,52.3,32.3,55.1,28.3,55.1z M23.4,49.5c1.6,2.7,5.1,3.6,7.8,2.1c0.9-0.5,1.6-1.2,2.1-2.1H23.4z"/>
	<path class="st0" d="M43.8,39.6H41c0-2-0.9-2.8-2.8-2.8c-1.6,0-2.8,1.3-2.8,2.8h-2.8c0-3.1,2.5-5.7,5.7-5.7
		c2.9-0.3,5.4,1.8,5.7,4.7C43.8,38.9,43.8,39.3,43.8,39.6z"/>
	<path class="st0" d="M24,39.6h-2.8c0-1.6-1.3-2.8-2.8-2.8c-2,0-2.8,0.9-2.8,2.8h-2.8c-0.3-2.9,1.8-5.4,4.7-5.7c0.3,0,0.6,0,1,0
		C21.5,33.9,24,36.4,24,39.6z"/>
</g>
</svg>
