<?xml version="1.0" encoding="utf-8"?>
<!-- Generator: Adobe Illustrator 25.4.1, SVG Export Plug-In . SVG Version: 6.00 Build 0)  -->
<svg version="1.1" id="Capa_1" xmlns="http://www.w3.org/2000/svg" xmlns:xlink="http://www.w3.org/1999/xlink" x="0px" y="0px"
	 viewBox="0 0 72.4 72.5" style="enable-background:new 0 0 72.4 72.5;" xml:space="preserve">
<style type="text/css">
	.st0{fill:#4C009E;}
</style>
<g>
	<path class="st0" d="M17.4,39.3H1.4c-0.7,0-1.4,0.6-1.4,1.4v30.5c0,0.7,0.6,1.4,1.4,1.4h16.1c0.7,0,1.4-0.6,1.4-1.4v-3.6l20.1,2.9
		c0.8,0.1,1.7,0.2,2.5,0.2c2.2,0,4.3-0.4,6.4-1.2L69.5,60c2-0.8,3.2-3,2.8-5.1c-0.4-2.1-2.2-3.6-4.3-3.8c3.9-8.1,2.4-17.7-3.7-24.3
		l-7.3-7.9c0.9-0.8,1.4-2,1.4-3.2V15c0-1.6-0.8-3-2.2-3.8l5.5-8.4c0.4-0.6,0.2-1.5-0.4-1.9c-0.8-0.6-1.8-0.9-2.8-1
		c-1,0-2,0.3-2.8,0.9c-0.8,0.6-1.9,0.6-2.7,0c-1.7-1.2-3.9-1.2-5.6,0c-0.8,0.6-1.9,0.6-2.7,0c-1.7-1.2-3.9-1.2-5.6,0
		c-0.8,0.6-1.9,0.6-2.7,0C35.7,0.3,34.8,0,33.7,0c-1,0-1.9,0.4-2.7,1c-0.6,0.4-0.8,1.2-0.4,1.9l5.5,8.4C34.8,12,34,13.5,34,15v0.7
		c0,1.2,0.5,2.4,1.4,3.2l-7.3,7.9c-4.3,4.7-6.4,11-5.7,17.3h-3.7v-3.5C18.8,39.9,18.2,39.3,17.4,39.3z M16.1,69.8H2.7V42h13.4V69.8z
		 M33.8,2.7c0.5,0,0.9,0.2,1.3,0.5c1.7,1.2,4,1.2,5.6,0c0.8-0.6,1.9-0.6,2.7,0c1.7,1.2,4,1.2,5.6,0c0.8-0.6,1.9-0.6,2.7,0
		c1.7,1.2,4,1.2,5.6,0c0.4-0.3,0.9-0.5,1.3-0.5l-5.2,7.9H39L33.8,2.7z M55.8,15v0.7c0,0.8-0.5,1.4-1.2,1.7l0,0
		c-0.2,0.1-0.4,0.1-0.5,0.1H38.5c-0.2,0-0.4,0-0.5-0.1c0,0,0,0-0.1,0c-0.7-0.3-1.2-0.9-1.2-1.7V15c0-0.9,0.7-1.7,1.7-1.8
		c0,0,0.1,0,0.1,0H54l0.1,0C55.1,13.3,55.8,14.1,55.8,15z M30.1,28.7l7.8-8.5c0.2,0,0.4,0,0.5,0H54c0.2,0,0.4,0,0.5,0l7.8,8.5
		c5.8,6.3,6.8,15.6,2.4,22.9l-14.3,2.7c-0.3-0.8-0.7-1.6-1.3-2.2c-1-1-2.4-1.6-3.8-1.6h-5c-0.9,0-1.8-0.2-2.6-0.7
		c-0.8-0.5-1.5-1.2-2-2c-1.4-2.3-3.9-3.6-6.5-3.6h-4.2C24.4,38.5,26.2,32.8,30.1,28.7z M18.8,46.9h10.5c1.7,0,3.3,0.9,4.2,2.3
		c0.7,1.2,1.7,2.2,2.9,2.9c1.2,0.7,2.6,1.1,4,1.1h5c1.5,0,2.7,1.2,2.7,2.7c0,0,0,0,0,0c0,1.5-1.2,2.7-2.7,2.7H28
		c-0.7,0-1.4,0.6-1.4,1.4c0,0.7,0.6,1.4,1.4,1.4h17.4c2.5,0,4.7-1.8,5.3-4.3l15.3-2.9l1.4-0.3c1.1-0.2,2.2,0.5,2.4,1.6
		c0.2,0.9-0.3,1.8-1.2,2.2l0,0l-21.7,9.4c-2.4,0.9-4.9,1.2-7.5,0.9l-20.5-3V46.9z"/>
	<path class="st0" d="M46.6,44.1h-1.4c-1,0-1.8-0.8-1.8-1.8c0-0.7-0.6-1.4-1.4-1.4c-0.7,0-1.4,0.6-1.4,1.4c0,2.4,1.8,4.3,4.2,4.5V48
		c0,0.7,0.6,1.4,1.4,1.4c0.7,0,1.4-0.6,1.4-1.4v-1.3c2.4-0.5,4.2-2.6,4.2-5c0-2.1-1.4-3.9-3.5-4.4l-3.5-0.8
		c-0.8-0.2-1.4-0.9-1.4-1.8v-0.6c0-1,0.8-1.8,1.8-1.8h2c1,0,1.8,0.8,1.8,1.8c0,0.7,0.6,1.4,1.4,1.4s1.4-0.6,1.4-1.4l0,0
		c0-2.4-1.8-4.3-4.2-4.5v-1.2c0-0.7-0.6-1.4-1.4-1.4c-0.7,0-1.4,0.6-1.4,1.4l0,0v1.2c-2.3,0.2-4.2,2.1-4.2,4.5v0.6
		c0,2.1,1.4,3.9,3.5,4.4l3.5,0.8c0.8,0.2,1.4,0.9,1.4,1.8C49.1,43,48,44.1,46.6,44.1z"/>
</g>
</svg>
