<?xml version="1.0" encoding="utf-8"?>
<!-- Generator: Adobe Illustrator 25.4.1, SVG Export Plug-In . SVG Version: 6.00 Build 0)  -->
<svg version="1.1" id="Capa_1" xmlns="http://www.w3.org/2000/svg" xmlns:xlink="http://www.w3.org/1999/xlink" x="0px" y="0px"
	 viewBox="0 0 78.7 78.7" style="enable-background:new 0 0 78.7 78.7;" xml:space="preserve">
<style type="text/css">
	.st0{fill:#4C009E;}
</style>
<g>
	<g>
		<path class="st0" d="M59.8,52.1c-2.6-2.5-5.8-2.5-8.3,0c-1.9,1.9-3.9,3.9-5.8,5.8c-0.5,0.5-1,0.7-1.6,0.3c-1.3-0.7-2.6-1.2-3.8-2
			c-5.6-3.6-10.4-8.1-14.6-13.3c-2.1-2.6-3.9-5.3-5.2-8.4c-0.3-0.6-0.2-1,0.3-1.5c1.9-1.9,3.8-3.8,5.8-5.7c2.7-2.7,2.7-5.8,0-8.5
			c-1.5-1.5-3-3-4.6-4.6c-1.6-1.6-3.1-3.2-4.7-4.7c-2.6-2.5-5.8-2.5-8.3,0c-2,1.9-3.8,3.9-5.8,5.8c-1.9,1.8-2.8,3.9-3,6.4
			c-0.3,4.1,0.7,7.9,2.1,11.7C5,41.1,9.4,48,14.7,54.3c7.2,8.5,15.8,15.3,25.8,20.2c4.5,2.2,9.2,3.9,14.3,4.2c3.5,0.2,6.6-0.7,9-3.4
			c1.7-1.9,3.6-3.6,5.3-5.4c2.6-2.7,2.6-5.9,0-8.5C66.1,58.3,63,55.2,59.8,52.1z"/>
		<path class="st0" d="M56.7,39l6-1c-0.9-5.6-3.6-10.6-7.5-14.6c-4.2-4.2-9.5-6.9-15.4-7.7l-0.9,6.1c4.5,0.6,8.7,2.7,11.9,5.9
			C54,30.8,56,34.7,56.7,39z"/>
		<path class="st0" d="M66.2,12.7c-7-7-15.8-11.4-25.5-12.7l-0.9,6.1c8.4,1.2,16,5,22.1,11C67.5,22.8,71.3,30,72.7,38l6-1
			C77.1,27.7,72.8,19.4,66.2,12.7z"/>
	</g>
</g>
</svg>
