<?xml version="1.0" encoding="utf-8"?>
<!-- Generator: Adobe Illustrator 25.4.1, SVG Export Plug-In . SVG Version: 6.00 Build 0)  -->
<svg version="1.1" id="Capa_1" xmlns="http://www.w3.org/2000/svg" xmlns:xlink="http://www.w3.org/1999/xlink" x="0px" y="0px"
	 viewBox="0 0 78.8 78.8" style="enable-background:new 0 0 78.8 78.8;" xml:space="preserve">
<style type="text/css">
	.st0{fill:#4C009E;}
</style>
<g id="Layer_2">
	<path class="st0" d="M57.7,78.8H6.4c-3.5,0-6.4-2.9-6.4-6.4v-66C0,2.9,2.9,0,6.4,0h51.3c3.5,0,6.4,2.9,6.4,6.4v40.3
		c0,1.5-1.2,2.7-2.7,2.7s-2.7-1.2-2.7-2.7V6.4c0-0.5-0.4-0.9-0.9-0.9H6.4c-0.5,0-0.9,0.4-0.9,0.9v66c0,0.5,0.4,0.9,0.9,0.9h51.3
		c1.4-0.6,3.1,0.1,3.7,1.5c0.6,1.4,0,2.9-1.4,3.5c0,0,0,0,0,0C59.3,78.7,58.5,78.8,57.7,78.8z"/>
	<path class="st0" d="M48.6,20.2h-33c-1.5,0-2.7-1.2-2.7-2.7c0-1.5,1.2-2.7,2.7-2.7h33c1.5,0,2.7,1.2,2.7,2.7
		C51.3,18.9,50.1,20.2,48.6,20.2L48.6,20.2z"/>
	<path class="st0" d="M48.6,34.8h-33c-1.5,0-2.7-1.2-2.7-2.7c0-1.5,1.2-2.7,2.7-2.7h33c1.5,0,2.7,1.2,2.7,2.7
		C51.3,33.6,50.1,34.8,48.6,34.8L48.6,34.8z"/>
	<path class="st0" d="M39.4,49.5H15.6c-1.5,0-2.7-1.2-2.7-2.7c0-1.5,1.2-2.7,2.7-2.7h23.8c1.5,0,2.7,1.2,2.7,2.7
		C42.2,48.3,40.9,49.5,39.4,49.5z"/>
	<path class="st0" d="M35.7,64.1H15.6c-1.5,0-2.7-1.2-2.7-2.7s1.2-2.7,2.7-2.7h20.2c1.5,0,2.7,1.2,2.7,2.7S37.3,64.1,35.7,64.1z"/>
	<path class="st0" d="M61.4,78.8C51.8,78.8,44,71,44,61.4S51.8,44,61.4,44s17.4,7.8,17.4,17.4l0,0C78.8,71,71,78.8,61.4,78.8z
		 M61.4,49.5c-6.6,0-11.9,5.3-11.9,11.9s5.3,11.9,11.9,11.9S73.3,68,73.3,61.4C73.3,54.8,68,49.5,61.4,49.5z"/>
	<path class="st0" d="M59.6,67.8c-0.7,0-1.4-0.3-1.9-0.8L54,63.3c-1.1-1.1-1.1-2.8,0-3.9c1.1-1.1,2.8-1.1,3.9,0c0,0,0,0,0,0l1.7,1.7
		l5.4-5.4c1.1-1.1,2.8-1.1,3.9,0c1.1,1.1,1.1,2.8,0,3.9L61.5,67C61,67.5,60.3,67.8,59.6,67.8z"/>
</g>
</svg>
