<?xml version="1.0" encoding="utf-8"?>
<!-- Generator: Adobe Illustrator 25.4.1, SVG Export Plug-In . SVG Version: 6.00 Build 0)  -->
<svg version="1.1" id="Capa_1" xmlns="http://www.w3.org/2000/svg" xmlns:xlink="http://www.w3.org/1999/xlink" x="0px" y="0px"
	 viewBox="0 0 67.5 66.2" style="enable-background:new 0 0 67.5 66.2;" xml:space="preserve">
<style type="text/css">
	.st0{fill:#4C009E;}
</style>
<g id="mobile_transaction">
	<g>
		<g>
			<path class="st0" d="M53.9,18.7v0.9c0,0.6,0.5,1.1,1.1,1.1c0.6,0,1.1-0.5,1.1-1.1v-0.9c1.8-0.4,3-1.7,3-3.4c0-1.3-0.5-3.5-4-4
				c-1.7-0.3-2-1-1.9-1.9c0.1-0.9,1.1-1.3,2-1.3c0.4,0,1.3,0.2,1.3,1.1c0,0.6,0.5,1.1,1.1,1.1c0.6,0,1.1-0.5,1.1-1.1
				c0-1.6-1.1-2.8-2.7-3.2V5.2c0-0.6-0.5-1.1-1.1-1.1c-0.6,0-1.1,0.5-1.1,1.1v0.9c-1.3,0.4-2.5,1.4-2.8,3c-0.1,1.4,0.1,3.7,3.7,4.4
				c1.9,0.3,2.1,1,2.1,1.8c0,1.3-1.7,1.4-2,1.4c-1.2,0-1.9-0.6-2-1.8c0-0.6-0.6-1.1-1.2-1c-0.6,0-1.1,0.6-1,1.2
				C50.9,17,52.1,18.3,53.9,18.7L53.9,18.7z"/>
			<path class="st0" d="M15.2,6.9h9.3c0.6,0,1.1-0.5,1.1-1.1s-0.5-1.1-1.1-1.1h-9.3c-0.6,0-1.1,0.5-1.1,1.1S14.6,6.9,15.2,6.9z"/>
			<path class="st0" d="M23.2,59.1h-6.6c-0.6,0-1.1,0.5-1.1,1.1c0,0.6,0.5,1.1,1.1,1.1h6.6c0.6,0,1.1-0.5,1.1-1.1
				C24.3,59.6,23.8,59.1,23.2,59.1z"/>
			<path class="st0" d="M53.5,40.7c-0.6-0.2-1.2,0.1-1.4,0.6c-0.2,0.6,0,1.2,0.6,1.4c0.1,0.1,0.3,0.1,0.4,0.1c0.4,0,0.8-0.3,1-0.7
				l0,0C54.4,41.5,54.1,40.9,53.5,40.7L53.5,40.7z"/>
			<path class="st0" d="M19.9,20.2c-7.2,0-13.1,5.9-13.1,13.1c0,7.2,5.9,13.1,13.1,13.1c7.2,0,13.1-5.9,13.1-13.1
				C33,26.1,27.1,20.2,19.9,20.2L19.9,20.2z M19.9,44.3c-6,0-11-4.9-11-11c0-6,4.9-11,11-11c6,0,11,4.9,11,11
				C30.8,39.4,25.9,44.3,19.9,44.3L19.9,44.3z"/>
			<path class="st0" d="M64.2,27H39.7V7.8c0-4-3.3-7.3-7.3-7.3h-25C3.3,0.5,0,3.8,0,7.8v51c0,4,3.3,7.3,7.3,7.3h25
				c4,0,7.3-3.3,7.3-7.3v-2.3h24.5c1.8,0,3.3-1.5,3.3-3.3V30.3C67.5,28.5,66,27,64.2,27L64.2,27z M2.2,11.9h35.4v42.6H2.2V11.9z
				 M39.7,38.5c0.7-0.5,1.5-0.8,2.4-0.8c2.2,0,4,1.8,4,4c0,2.2-1.8,4-4,4c-0.9,0-1.7-0.3-2.4-0.8V38.5z M39.7,47.4
				c0.8,0.3,1.6,0.5,2.4,0.5c3.4,0,6.2-2.8,6.2-6.2c0-3.4-2.8-6.2-6.2-6.2c-0.8,0-1.7,0.2-2.4,0.5v-2h16.1c0.4,2.1,2.1,3.8,4.2,4.2
				v6.9c-2.1,0.4-3.8,2.1-4.2,4.2H39.7V47.4z M7.3,2.6h25c2.8,0,5.2,2.3,5.2,5.2v1.9H2.2V7.8C2.2,5,4.5,2.6,7.3,2.6L7.3,2.6z
				 M32.4,64h-25c-2.8,0-5.2-2.3-5.2-5.2v-2.2h35.4v2.2C37.5,61.7,35.2,64,32.4,64z M65.3,53.2c0,0.6-0.5,1.1-1.1,1.1H39.7v-2.7h17
				c0.6,0,1.1-0.5,1.1-1.1c0-1.8,1.5-3.2,3.2-3.2c0.6,0,1.1-0.5,1.1-1.1v-8.8c0-0.6-0.5-1.1-1.1-1.1c-1.8,0-3.2-1.5-3.2-3.2
				c0-0.6-0.5-1.1-1.1-1.1h-17v-2.7h24.5c0.6,0,1.1,0.5,1.1,1.1L65.3,53.2z"/>
			<path class="st0" d="M54.9,24.8c6.8,0,12.4-5.6,12.4-12.4C67.3,5.6,61.7,0,54.9,0S42.5,5.6,42.5,12.4
				C42.5,19.3,48,24.8,54.9,24.8L54.9,24.8z M54.9,2.2c5.6,0,10.2,4.6,10.2,10.2c0,5.6-4.6,10.2-10.2,10.2s-10.2-4.6-10.2-10.2
				C44.6,6.8,49.2,2.2,54.9,2.2L54.9,2.2z"/>
			<path class="st0" d="M24.2,26.7c-0.8,0-1.5,0.4-2,1l-5,5.6l-0.8-0.7c-0.6-0.5-1.4-0.8-2.2-0.8c-0.8,0-1.6,0.4-2.1,1
				c-1.1,1.3-1,3.2,0.3,4.3l3.3,2.9c0.4,0.4,1.1,0.9,1.8,0.9c0,0,0.1,0,0.1,0c0.9-0.1,1.5-0.8,2.1-1.5c0.1-0.2,0.3-0.3,0.4-0.5
				l6.5-7.3c1.1-1.2,1-3.1-0.2-4.2C25.8,26.9,25,26.6,24.2,26.7L24.2,26.7z M25,30.2l-6.5,7.3c0,0,0,0,0,0c-0.2,0.2-0.3,0.4-0.5,0.5
				c-0.2,0.2-0.5,0.6-0.6,0.7c-0.1,0-0.2-0.1-0.4-0.3l-3.3-2.9c-0.4-0.3-0.4-0.9-0.1-1.3c0.2-0.2,0.4-0.3,0.6-0.3c0,0,0,0,0.1,0
				c0.2,0,0.4,0.1,0.6,0.2l1.6,1.5c0.4,0.4,1.1,0.4,1.5-0.1l5.7-6.4c0.1-0.2,0.3-0.2,0.5-0.3c0.2,0,0.4,0.1,0.6,0.2
				c0.2,0.1,0.2,0.3,0.3,0.5S25.2,30,25,30.2L25,30.2z"/>
		</g>
	</g>
</g>
</svg>
