<?xml version="1.0" encoding="utf-8"?>
<!-- Generator: Adobe Illustrator 25.4.1, SVG Export Plug-In . SVG Version: 6.00 Build 0)  -->
<svg version="1.1" id="Capa_1" xmlns="http://www.w3.org/2000/svg" xmlns:xlink="http://www.w3.org/1999/xlink" x="0px" y="0px"
	 viewBox="0 0 67.4 67.4" style="enable-background:new 0 0 67.4 67.4;" xml:space="preserve">
<style type="text/css">
	.st0{fill:#4C009E;}
</style>
<g>
	<g>
		<path class="st0" d="M58.1,10.4C51.7,3.7,42.9,0,33.7,0C15.1,0,0,15,0,33.6c0,9.2,3.7,18,10.4,24.3c0,0,0,0,0,0.1
			c0.2,0.2,0.4,0.3,0.6,0.5c0.5,0.5,1.1,1,1.7,1.4c0.3,0.2,0.6,0.5,0.9,0.7c0.5,0.4,1.1,0.8,1.6,1.2c0.4,0.2,0.8,0.5,1.2,0.7
			c0.5,0.3,1,0.6,1.6,0.9c0.5,0.2,0.9,0.4,1.4,0.7c0.5,0.2,1,0.5,1.5,0.7s1,0.4,1.6,0.6c0.5,0.2,1,0.4,1.5,0.5
			c0.6,0.2,1.2,0.3,1.7,0.4c0.5,0.1,0.9,0.3,1.4,0.3c0.7,0.1,1.3,0.2,2,0.3c0.4,0.1,0.8,0.1,1.2,0.2c1.1,0.1,2.2,0.2,3.3,0.2
			c1.1,0,2.2-0.1,3.3-0.2c0.4,0,0.8-0.1,1.2-0.2c0.7-0.1,1.3-0.2,2-0.3c0.5-0.1,1-0.2,1.4-0.3c0.6-0.1,1.2-0.3,1.7-0.4
			c0.5-0.2,1-0.3,1.5-0.5c0.5-0.2,1-0.4,1.6-0.6c0.5-0.2,1-0.5,1.5-0.7c0.5-0.2,0.9-0.4,1.4-0.7c0.5-0.3,1.1-0.6,1.6-0.9
			c0.4-0.2,0.8-0.5,1.2-0.7c0.6-0.4,1.1-0.8,1.6-1.2c0.3-0.2,0.6-0.5,0.9-0.7c0.6-0.5,1.1-0.9,1.7-1.4c0.2-0.2,0.4-0.3,0.6-0.5
			c0,0,0,0,0-0.1C70.5,45.1,70.9,23.8,58.1,10.4z M52.7,55.4c-0.4,0.4-0.9,0.8-1.3,1.1c-0.3,0.2-0.5,0.4-0.8,0.6
			c-0.4,0.3-0.9,0.6-1.3,0.9c-0.3,0.2-0.7,0.4-1,0.6c-0.4,0.2-0.9,0.5-1.3,0.7c-0.4,0.2-0.8,0.4-1.2,0.6c-0.4,0.2-0.8,0.4-1.3,0.5
			c-0.4,0.2-0.9,0.3-1.3,0.5c-0.4,0.1-0.8,0.3-1.2,0.4c-0.5,0.1-1,0.3-1.5,0.4C40,61.9,39.6,62,39.2,62c-0.6,0.1-1.2,0.2-1.7,0.3
			c-0.3,0-0.7,0.1-1,0.1c-0.9,0.1-1.9,0.1-2.8,0.1s-1.9-0.1-2.8-0.1c-0.3,0-0.7-0.1-1-0.1c-0.6-0.1-1.2-0.2-1.7-0.3
			c-0.4-0.1-0.8-0.2-1.2-0.3c-0.5-0.1-1-0.2-1.5-0.4c-0.4-0.1-0.8-0.3-1.2-0.4c-0.4-0.2-0.9-0.3-1.3-0.5c-0.4-0.2-0.8-0.4-1.3-0.5
			c-0.4-0.2-0.8-0.4-1.2-0.6c-0.4-0.2-0.9-0.5-1.3-0.7c-0.3-0.2-0.7-0.4-1-0.6c-0.5-0.3-0.9-0.6-1.3-0.9c-0.3-0.2-0.5-0.4-0.8-0.6
			c-0.5-0.4-0.9-0.7-1.3-1.1c-0.1-0.1-0.2-0.2-0.3-0.3c0.1-8.2,5.4-15.4,13.1-18c3.9,1.8,8.4,1.8,12.3,0c7.8,2.6,13,9.9,13.1,18
			C52.9,55.3,52.8,55.4,52.7,55.4z M25.3,19.3c2.6-4.6,8.5-6.3,13.1-3.7s6.3,8.5,3.7,13.1c-0.9,1.5-2.1,2.8-3.7,3.7c0,0,0,0,0,0
			c-0.6,0.4-1.3,0.6-2,0.9c-0.1,0-0.2,0.1-0.4,0.1c-0.2,0.1-0.5,0.1-0.7,0.1c-0.5,0.1-0.9,0.1-1.4,0.1h-0.3c-0.5,0-0.9-0.1-1.4-0.1
			c-0.2,0-0.5-0.1-0.7-0.1c-0.1,0-0.2-0.1-0.4-0.1c-0.7-0.2-1.4-0.5-2-0.9l0,0C24.3,29.8,22.7,23.9,25.3,19.3z M57.2,50.4L57.2,50.4
			c-1.5-7.2-6.3-13.3-12.9-16.6c5.4-5.9,5-15-0.9-20.4s-15-5-20.4,0.9c-5.1,5.5-5.1,14,0,19.5c-6.6,3.3-11.3,9.4-12.9,16.6
			c-9.2-13-6.2-31,6.8-40.3S48,4,57.3,17c3.5,4.9,5.3,10.7,5.3,16.7C62.6,39.7,60.7,45.5,57.2,50.4z"/>
	</g>
</g>
</svg>
