<svg height="512" viewBox="0 0 64 64" width="512" xmlns="http://www.w3.org/2000/svg"><g id="_30-Calculator" data-name="30-Calculator"><path d="m53 22h-42a1 1 0 0 1 -1-1v-16a5.006 5.006 0 0 1 5-5h34a5.006 5.006 0 0 1 5 5v3h-2v-3a3 3 0 0 0 -3-3h-34a3 3 0 0 0 -3 3v15h40v-10h2v11a1 1 0 0 1 -1 1z"/><path d="m10 26h2v2h-2z"/><path d="m49 64h-34a5.006 5.006 0 0 1 -5-5v-29h2v29a3 3 0 0 0 3 3h34a3 3 0 0 0 3-3v-37h-40v2h-2v-3a1 1 0 0 1 1-1h42a1 1 0 0 1 1 1v38a5.006 5.006 0 0 1 -5 5z"/><path d="m47 18h-30a1 1 0 0 1 -1-1v-8a1 1 0 0 1 1-1h30a1 1 0 0 1 1 1v8a1 1 0 0 1 -1 1zm-29-2h28v-6h-28z"/><path d="m38 6h-12a1 1 0 0 1 -1-1v-4a1 1 0 0 1 1-1h12a1 1 0 0 1 1 1v4a1 1 0 0 1 -1 1zm-11-2h10v-2h-10z"/><path d="m48 60h-4a2 2 0 0 1 -2-2v-8a2 2 0 0 1 2-2h4a2 2 0 0 1 2 2v8a2 2 0 0 1 -2 2zm-4-10v8h4v-8z"/><path d="m48 47h-4a2 2 0 0 1 -2-2v-2a2 2 0 0 1 2-2h4a2 2 0 0 1 2 2v2a2 2 0 0 1 -2 2zm-4-4v2h4v-2z"/><path d="m48 40h-4a2 2 0 0 1 -2-2v-2a2 2 0 0 1 2-2h4a2 2 0 0 1 2 2v2a2 2 0 0 1 -2 2zm-4-4v2h4v-2z"/><path d="m48 33h-4a2 2 0 0 1 -2-2v-2a2 2 0 0 1 2-2h4a2 2 0 0 1 2 2v2a2 2 0 0 1 -2 2zm-4-4v2h4v-2z"/><path d="m39 60h-2a2 2 0 0 1 -2-2v-2a2 2 0 0 1 2-2h2a2 2 0 0 1 2 2v2a2 2 0 0 1 -2 2zm-2-4v2h2v-2z"/><path d="m39 53h-2a2 2 0 0 1 -2-2v-2a2 2 0 0 1 2-2h2a2 2 0 0 1 2 2v2a2 2 0 0 1 -2 2zm-2-4v2h2v-2z"/><path d="m39 46h-2a2 2 0 0 1 -2-2v-2a2 2 0 0 1 2-2h2a2 2 0 0 1 2 2v2a2 2 0 0 1 -2 2zm-2-4v2h2v-2z"/><path d="m39 39h-2a2 2 0 0 1 -2-2v-2a2 2 0 0 1 2-2h2a2 2 0 0 1 2 2v2a2 2 0 0 1 -2 2zm-2-4v2h2v-2z"/><path d="m32 60h-2a2 2 0 0 1 -2-2v-2a2 2 0 0 1 2-2h2a2 2 0 0 1 2 2v2a2 2 0 0 1 -2 2zm-2-4v2h2v-2z"/><path d="m32 53h-2a2 2 0 0 1 -2-2v-2a2 2 0 0 1 2-2h2a2 2 0 0 1 2 2v2a2 2 0 0 1 -2 2zm-2-4v2h2v-2z"/><path d="m32 46h-2a2 2 0 0 1 -2-2v-2a2 2 0 0 1 2-2h2a2 2 0 0 1 2 2v2a2 2 0 0 1 -2 2zm-2-4v2h2v-2z"/><path d="m32 39h-2a2 2 0 0 1 -2-2v-2a2 2 0 0 1 2-2h2a2 2 0 0 1 2 2v2a2 2 0 0 1 -2 2zm-2-4v2h2v-2z"/><path d="m25 60h-2a2 2 0 0 1 -2-2v-2a2 2 0 0 1 2-2h2a2 2 0 0 1 2 2v2a2 2 0 0 1 -2 2zm-2-4v2h2v-2z"/><path d="m25 53h-2a2 2 0 0 1 -2-2v-2a2 2 0 0 1 2-2h2a2 2 0 0 1 2 2v2a2 2 0 0 1 -2 2zm-2-4v2h2v-2z"/><path d="m25 46h-2a2 2 0 0 1 -2-2v-2a2 2 0 0 1 2-2h2a2 2 0 0 1 2 2v2a2 2 0 0 1 -2 2zm-2-4v2h2v-2z"/><path d="m25 39h-2a2 2 0 0 1 -2-2v-2a2 2 0 0 1 2-2h2a2 2 0 0 1 2 2v2a2 2 0 0 1 -2 2zm-2-4v2h2v-2z"/><path d="m18 60h-2a2 2 0 0 1 -2-2v-2a2 2 0 0 1 2-2h2a2 2 0 0 1 2 2v2a2 2 0 0 1 -2 2zm-2-4v2h2v-2z"/><path d="m18 53h-2a2 2 0 0 1 -2-2v-2a2 2 0 0 1 2-2h2a2 2 0 0 1 2 2v2a2 2 0 0 1 -2 2zm-2-4v2h2v-2z"/><path d="m18 46h-2a2 2 0 0 1 -2-2v-2a2 2 0 0 1 2-2h2a2 2 0 0 1 2 2v2a2 2 0 0 1 -2 2zm-2-4v2h2v-2z"/><path d="m18 39h-2a2 2 0 0 1 -2-2v-2a2 2 0 0 1 2-2h2a2 2 0 0 1 2 2v2a2 2 0 0 1 -2 2zm-2-4v2h2v-2z"/><path d="m36 29h4v2h-4z"/><path d="m29 29h4v2h-4z"/><path d="m22 29h4v2h-4z"/><path d="m15 29h4v2h-4z"/><path d="m17 24h30v2h-30z"/></g></svg>