<?xml version="1.0" encoding="UTF-8"?>
<svg xmlns="http://www.w3.org/2000/svg" viewBox="0 0 64 64" width="512" height="512"><g id="appointment-payment-date-time-money"><path d="M38,24a6,6,0,1,0,6-6A6.006,6.006,0,0,0,38,24Zm6-4a4,4,0,1,1-4,4A4,4,0,0,1,44,20Z"/><path d="M38,9.829A3.013,3.013,0,0,0,39.829,8H42V6H39a1,1,0,0,0-1,1,1,1,0,0,1-1,1,1,1,0,0,0-1,1v3h2Z"/><path d="M50,9.829V12h2V9a1,1,0,0,0-1-1,1,1,0,0,1-1-1,1,1,0,0,0-1-1H46V8h2.171A3.013,3.013,0,0,0,50,9.829Z"/><path d="M62,46V26a1.011,1.011,0,0,0-.35-.76L56,20.4V4a2.006,2.006,0,0,0-2-2H34a2.006,2.006,0,0,0-2,2V44a2.006,2.006,0,0,0,2,2h9v4a1.355,1.355,0,0,0,.02.2l.76,3.8H43a1,1,0,0,0-1,1v6a1,1,0,0,0,1,1H61a1,1,0,0,0,1-1V55a1,1,0,0,0-1-1h-.75l1.73-7.78A1.635,1.635,0,0,0,62,46ZM42.07,33.07a2.972,2.972,0,0,0-.67,2.42L42.15,40H39.83A3.016,3.016,0,0,0,38,38.17V36H36v3a1,1,0,0,0,1,1,1,1,0,0,1,1,1,1,1,0,0,0,1,1h3.49l.33,2H34V4H54V44H50.85l-1.58-9.5A3,3,0,0,0,46.31,32H44.36A2.975,2.975,0,0,0,42.07,33.07ZM60,60H44V56H60Zm0-14.11L58.2,54H45.82L45,49.9V45a.86.86,0,0,0-.01-.16l-1.61-9.68a.965.965,0,0,1,.21-.8,1.023,1.023,0,0,1,.77-.36h1.95a1.007,1.007,0,0,1,.98.83l1.72,10.33A1,1,0,0,0,50,46h4a2.006,2.006,0,0,0,2-2V23.03l4,3.43Z"/><path d="M16,4A14,14,0,1,0,30,18,14.015,14.015,0,0,0,16,4Zm0,26A12,12,0,1,1,28,18,12.013,12.013,0,0,1,16,30Z"/><path d="M17,15.184V10H15v5.184A2.993,2.993,0,1,0,18.816,19H22V17H18.816A3,3,0,0,0,17,15.184ZM16,19a1,1,0,1,1,1-1A1,1,0,0,1,16,19Z"/><path d="M26,38H23V36H21v2H17V36H15v2H11V36H9v2H6a3,3,0,0,0-3,3V57a3,3,0,0,0,3,3H26a3,3,0,0,0,3-3V41A3,3,0,0,0,26,38ZM6,40H9v2h2V40h4v2h2V40h4v2h2V40h3a1,1,0,0,1,1,1v3H5V41A1,1,0,0,1,6,40Zm5,6h4v5H11ZM9,51H5V46H9Zm6,2v5H11V53Zm2,0h4v5H17Zm0-2V46h4v5Zm6-5h4v5H23ZM5,57V53H9v5H6A1,1,0,0,1,5,57Zm21,1H23V53h4v4A1,1,0,0,1,26,58Z"/></g></svg>
