<svg id="&#xB808;&#xC774;&#xC5B4;_1" enable-background="new 0 0 100 100" viewBox="0 0 100 100" xmlns="http://www.w3.org/2000/svg"><path d="m93.12 57.75-5.94-7.99 7.68-29.08c.21-.8-.27-1.62-1.07-1.83l-13.11-3.46v-5.36c0-.83-.67-1.5-1.5-1.5h-67.18c-.83 0-1.5.67-1.5 1.5v10.76l-7.39 1.29c-.82.14-1.36.92-1.22 1.74l7.46 42.82c.07.39.29.74.62.97.25.18.56.27.86.27.09 0 .17-.01.26-.02l25.31-4.41 7.6 10.22-1.23-.18c-1.91-.28-3.82.2-5.38 1.35-1.55 1.15-2.56 2.84-2.85 4.75-.58 3.95 2.16 7.64 6.11 8.22l.24.03c6.29.93 12.62 3.26 18.81 6.94 4.03 2.39 8.52 3.58 13 3.58 5.34 0 10.67-1.69 15.16-5.03 5.46-4.05 9.01-9.98 10-16.71.99-6.71-.69-13.42-4.74-18.87zm-12.44-39.27 10.9 2.88-6.68 25.32-.74-1c-.91-1.23-2.13-2.1-3.47-2.59v-24.61zm-67.18-6.96h64.18v18.61l-.87-5c-.07-.39-.29-.74-.61-.97l-16.4-11.53c-.33-.23-.73-.32-1.12-.25l-45.18 7.88zm58 13.01-8.91 1.55-1.55-8.91zm-36.44 36.09-23.01 4.01-6.95-39.86 52.64-9.18c0 .06 0 .13.01.19l2.14 12.29c.13.73.76 1.24 1.48 1.24.09 0 .17-.01.26-.02l12.48-2.18 2.72 15.61c-.98.17-1.92.54-2.77 1.13-1.62 1.13-2.69 2.83-3.01 4.78-.06.35-.09.7-.09 1.05-2.09-.59-4.42-.24-6.29 1.15-1.27.94-2.14 2.23-2.58 3.63l-4.9-6.59c-.53-.71-1.16-1.3-1.86-1.77 1.62-3.01 2.19-6.46 1.6-9.87-1.45-8.3-9.38-13.88-17.68-12.43s-13.88 9.38-12.43 17.68c1.01 5.79 5.18 10.25 10.43 11.93-2.05 1.79-2.83 4.61-2.19 7.21zm17.46-15.68c-1.85-.36-3.82-.02-5.43 1.11-1.62 1.13-2.69 2.83-3.01 4.78-.03.17-.03.34-.05.51l-.06-.37c-6.68 1.16-13.05-3.32-14.21-9.99s3.32-13.05 9.99-14.21c6.68-1.16 13.05 3.32 14.21 9.99.49 2.83-.03 5.7-1.44 8.18zm42.37 31.25c-.88 5.93-4.01 11.16-8.82 14.74-7.29 5.41-17.04 5.91-24.84 1.28-6.53-3.88-13.22-6.34-19.9-7.33l-.24-.03c-2.31-.34-3.92-2.5-3.58-4.81.17-1.12.76-2.11 1.67-2.78.74-.55 1.62-.84 2.52-.84.21 0 .42.02.63.05l4.81.71c.6.09 1.19-.19 1.51-.71s.28-1.18-.08-1.66l-9.83-13.23c-1.43-1.93-1.15-4.64.63-6.05.91-.72 2.04-1.03 3.19-.88s2.16.75 2.85 1.67l9.62 12.95 2.29 3.08 2.08 2.8c.29.4.75.61 1.21.61.31 0 .62-.1.89-.3.67-.49.8-1.43.31-2.1l-13.99-18.84c-.69-.93-.97-2.07-.78-3.21s.81-2.14 1.76-2.8c1.86-1.3 4.54-.78 5.97 1.15l8.11 10.92 5.74 7.72c.29.4.75.61 1.21.61.31 0 .62-.1.89-.3.67-.49.8-1.43.31-2.1l-5.45-7.34c-1.39-1.88-1-4.54.88-5.93s4.53-1 5.93.87l5.45 7.34c.29.4.75.61 1.21.61.31 0 .62-.1.89-.3.67-.49.8-1.43.31-2.1l-5.45-7.34c-.69-.93-.97-2.07-.78-3.21s.81-2.13 1.76-2.8c1.86-1.3 4.54-.78 5.97 1.15l8.97 12.08c3.56 4.81 5.05 10.73 4.17 16.65z"/><path d="m45.91 39.11c-.34-.38-.81-.67-1.41-.89-.56-.2-1.34-.38-2.32-.56-.76-.13-1.31-.24-1.62-.32-.27-.07-.5-.17-.66-.3-.13-.1-.21-.24-.24-.44-.04-.25.02-.45.22-.64.23-.22.63-.39 1.19-.49.48-.08.94-.1 1.36-.04.31.04.64.12.98.25.21.08.45.07.65-.03.21-.1.37-.29.44-.51l.17-.52c.14-.43-.07-.9-.49-1.06-.43-.17-.89-.29-1.39-.37-.31-.05-.63-.07-.98-.06l-.14-.8c-.11-.61-.69-1.03-1.31-.92-.3.05-.56.22-.73.46-.17.25-.24.55-.19.85l.14.79c-.73.25-1.32.6-1.74 1.05-.65.69-.9 1.53-.73 2.48.16.91.6 1.58 1.33 2 .66.38 1.7.69 3.11.92.76.11 1.33.23 1.68.34.41.13.57.25.63.31.09.1.16.25.2.45.05.27-.02.47-.22.64-.24.21-.63.36-1.17.46-.53.1-1.07.11-1.58.03-.55-.09-1.05-.26-1.47-.51-.38-.23-.89-.1-1.14.28l-.37.57c-.13.2-.17.44-.12.67.05.22.19.41.39.52.56.32 1.18.56 1.86.69.39.08.81.12 1.27.12l.15.83c.05.3.22.56.46.73.19.13.42.21.65.21.06 0 .13-.01.2-.02.3-.05.56-.22.73-.46.17-.25.24-.55.19-.84l-.13-.75c.9-.25 1.61-.62 2.09-1.12.67-.68.92-1.51.75-2.47-.12-.63-.35-1.15-.69-1.53z"/></svg>