<svg id="Capa_1" enable-background="new 0 0 512.031 512.031" height="512" viewBox="0 0 512.031 512.031" width="512" xmlns="http://www.w3.org/2000/svg"><g><path d="m274.78 242.55c-2.736 2.7-9.294 5.852-18.771 5.852s-16.035-3.152-18.771-5.852c-2.95-2.91-7.698-2.877-10.606.071-2.909 2.949-2.877 7.697.071 10.606 6.457 6.371 17.413 10.174 29.306 10.174 11.894 0 22.85-3.804 29.307-10.174 2.949-2.909 2.98-7.658.071-10.606-2.91-2.948-7.659-2.979-10.607-.071z"/><path d="m207.931 176.286c-4.142 0-7.5 3.358-7.5 7.5v8.013c0 4.142 3.358 7.5 7.5 7.5s7.5-3.358 7.5-7.5v-8.013c0-4.142-3.358-7.5-7.5-7.5z"/><path d="m304.086 176.286c-4.142 0-7.5 3.358-7.5 7.5v8.013c0 4.142 3.358 7.5 7.5 7.5s7.5-3.358 7.5-7.5v-8.013c0-4.142-3.357-7.5-7.5-7.5z"/><path d="m216.035 152.247-16.025-.196c-.032 0-.062 0-.094 0-4.099 0-7.447 3.298-7.498 7.408-.051 4.142 3.266 7.541 7.408 7.591l16.025.196h.094c4.099 0 7.447-3.298 7.498-7.408.051-4.142-3.266-7.54-7.408-7.591z"/><path d="m362.178 433.797c3.951-22.641.156-40.443-11.944-56.026-9.516-12.249-14.357-27.085-13.632-41.776.174-3.529.336-7.289.481-11.175.155-4.14-3.076-7.62-7.215-7.774-4.141-.174-7.62 3.076-7.774 7.215-.146 3.908-.307 7.619-.473 10.995-.903 18.272 5.053 36.639 16.767 51.717 9.577 12.334 12.273 25.567 9.014 44.245-2.468 14.121-.807 28.726 4.806 42.242 6.254 15.036 8.482 25.792 8.482 30.846 0 4.142 3.358 7.5 7.5 7.5s7.5-3.358 7.5-7.5c0-8.547-3.511-21.889-9.631-36.603-4.516-10.874-5.858-22.598-3.881-33.906z"/><path d="m409.917 374.375-29.684-9.732c-1.458-2.209-3.02-4.385-4.685-6.529-.108-.14-.209-.281-.315-.422 22.696-28.995 33.954-65.077 31.738-101.966l-7.229-120.367c-4.558-75.902-67.694-135.359-143.734-135.359s-139.175 59.457-143.734 135.36l-7.229 120.367c-2.216 36.889 9.042 72.971 31.738 101.966-.106.14-.206.282-.315.422-1.667 2.146-3.23 4.323-4.689 6.534l-29.666 9.726c-22.886 7.504-38.262 28.728-38.262 52.812v77.117c0 4.142 3.358 7.5 7.5 7.5s7.5-3.358 7.5-7.5v-77.117c0-17.584 11.227-33.08 27.936-38.558l15.331-5.027c-6.194 16.66-7.451 35.088-3.852 55.702.926 5.304.267 10.868-1.905 16.089-5.514 13.254-12.086 32.498-12.086 48.91 0 4.142 3.358 7.5 7.5 7.5s7.5-3.358 7.5-7.5c0-14.671 6.852-33.331 10.936-43.148 3.271-7.862 4.25-16.311 2.832-24.431-4.837-27.716.015-49.771 15.271-69.408 7.019-9.035 10.596-19.86 10.07-30.48-.729-14.757-1.523-42.45.348-74.19 4.323 7.653 9.562 14.788 15.572 21.253-.246 16.77.429 38.302 1.111 52.095.726 14.691-4.116 29.527-13.634 41.778-12.098 15.581-15.893 33.383-11.942 56.026 1.976 11.306.634 23.029-3.88 33.898-6.122 14.718-9.633 28.061-9.633 36.606 0 4.142 3.358 7.5 7.5 7.5s7.5-3.358 7.5-7.5c0-5.053 2.229-15.809 8.484-30.85 5.611-13.512 7.272-28.117 4.805-42.235-3.259-18.68-.563-31.913 9.012-44.245 11.716-15.08 17.672-33.447 16.769-51.719-.5-10.116-.996-24.452-1.117-37.892 5.433 4.05 11.219 7.568 17.26 10.549.285 6.317.879 20.206.879 26.133 0 24.36-7.028 46.28-20.325 63.39-5.423 6.978-8.464 14.895-5.68 30.856 3.025 17.312 1.001 35.191-5.852 51.701-4.091 9.837-5.84 16.639-6.518 19.819-.384 1.803-.606 3.254-.659 4.312-.209 4.137 2.974 7.691 7.11 7.899.13.006.259.01.388.01 3.967 0 7.277-3.085 7.479-7.092.014-.161.104-.833.353-2.001.57-2.673 2.068-8.461 5.699-17.191 6.162-14.845 8.94-30.656 8.247-46.389 7.283 2.125 14.695 3.864 22.163 5.177l29.825 47.719c1.371 2.193 3.774 3.525 6.36 3.525s4.989-1.332 6.36-3.525l29.825-47.719c7.468-1.312 14.88-3.051 22.164-5.177-.693 15.733 2.085 31.545 8.248 46.394 3.629 8.725 5.127 14.513 5.697 17.186.25 1.169.339 1.842.35 1.941.202 4.008 3.515 7.122 7.484 7.122.127 0 .255-.003.384-.009 4.137-.209 7.321-3.731 7.113-7.869-.054-1.058-.275-2.509-.66-4.313-.678-3.179-2.426-9.981-6.516-19.813-6.854-16.515-8.879-34.394-5.854-51.708 2.785-15.958-.257-23.875-5.68-30.854-13.296-17.11-20.324-39.03-20.324-63.391 0-5.928.594-19.821.879-26.136 7.566-3.734 14.732-8.311 21.314-13.711 10.765-8.832 19.725-19.591 26.491-31.575 1.873 31.75 1.078 59.454.349 74.215-.525 10.622 3.052 21.447 10.071 30.48 15.256 19.638 20.109 41.692 15.271 69.408-1.417 8.121-.438 16.569 2.833 24.431 4.084 9.817 10.936 28.478 10.936 43.148 0 4.142 3.358 7.5 7.5 7.5s7.5-3.358 7.5-7.5c0-16.412-6.572-35.656-12.086-48.91-2.172-5.222-2.831-10.786-1.906-16.09 3.599-20.617 2.342-39.046-3.854-55.707l15.347 5.032c16.709 5.479 27.936 20.974 27.936 38.558v77.117c0 4.142 3.358 7.5 7.5 7.5s7.5-3.358 7.5-7.5v-77.117c0-24.083-15.377-45.307-38.263-52.811zm-289.899-117.749 7.229-120.367c4.085-67.996 60.643-121.259 128.761-121.259s124.677 53.263 128.762 121.259l7.229 120.367c1.816 30.233-6.421 59.861-23.319 84.625-.101-1.221-.127-2.447-.067-3.675 1.12-22.666 2.115-67.609-3.803-113.941-7.397-57.917-23.16-99.903-46.849-124.791-16.881-17.735-37.725-26.728-61.954-26.728s-45.073 8.992-61.953 26.728c-23.689 24.888-39.452 66.874-46.849 124.791-5.918 46.332-4.923 91.275-3.803 113.941.061 1.228.034 2.454-.066 3.675-16.898-24.764-25.134-54.392-23.318-84.625zm107.44-163.711c9.194 11.083 31.586 34.331 63.039 42.23.613.154 1.228.228 1.833.228 3.357 0 6.414-2.271 7.269-5.675 1.009-4.018-1.43-8.092-5.447-9.101-23.27-5.845-41.349-22.134-50.877-32.425 4.087-.69 8.322-1.055 12.734-1.055 20.243 0 36.954 7.219 51.089 22.069 10.844 11.393 19.262 26.446 25.788 43.458-29.708 6.302-58.932-.396-86.964-19.965-16.241-11.338-27.73-24.187-33.093-30.777 4.61-3.699 9.479-6.687 14.629-8.987zm58.991 337.372c-2.144.34-4.035 1.592-5.186 3.433l-25.255 40.408-25.255-40.408c-1.15-1.84-3.042-3.092-5.185-3.433-10.085-1.599-20.084-4.022-29.781-7.205-1.418-10.539.995-13.669 3.15-16.442.394-.507.763-1.033 1.148-1.548 17.66 7.004 36.329 10.557 55.564 10.557h.717c19.233 0 37.905-3.551 55.566-10.554.384.514.752 1.039 1.146 1.545 2.155 2.772 4.569 5.902 3.151 16.44-9.697 3.183-19.697 5.608-29.78 7.207zm17.223-38.089c-15.086 5.608-30.967 8.451-47.305 8.451h-.717c-16.341 0-32.222-2.839-47.307-8.448 9.237-17.006 14.076-36.797 14.076-58.157 0-4.531-.313-13.105-.596-19.949 10.986 3.534 22.523 5.398 34.186 5.398 11.669 0 23.204-1.861 34.186-5.393-.284 6.844-.596 15.415-.596 19.945 0 21.358 4.837 41.148 14.073 58.153zm13.606-109.597c-17.208 14.118-38.967 21.893-61.27 21.893-22.115 0-43.731-7.658-60.867-21.564-16.855-13.678-28.729-32.793-33.453-53.837 5.244-43.774 16.651-89.283 40.332-116.69 6.21 7.519 18.138 20.507 34.897 32.283 23.758 16.695 49.154 25.181 74.773 25.181 8.694 0 17.414-.993 26.104-2.959 6.053 19.646 10.004 41.09 12.528 62.139-4.683 20.893-16.374 39.877-33.044 53.554z"/></g></svg>