<svg id="Layer_1" enable-background="new 0 0 512 512" height="512" viewBox="0 0 512 512" width="512" xmlns="http://www.w3.org/2000/svg"><g id="XMLID_1_"><g id="XMLID_5662_"><g id="XMLID_563_"><path id="XMLID_4472_" d="m256 313c-.5 0-.9-.1-1.3-.2-2.1-.6-51.9-14.8-73.7-44.2-21.3-28.7-24.8-95.6-25-98.4-.1-1.8.8-3.5 2.3-4.4 1.1-.7 26.7-18.4 26.7-64.8 0-2.6 2-4.8 4.6-5s4.9 1.6 5.4 4.1l5.4 30.4c8.2-8.7 21.4-26.5 22.7-50.8.1-2.6 2.3-4.7 4.9-4.7s4.8 1.9 5.1 4.5c1.2 11.7 7.9 43.3 24.6 49 22.7 7.7 64.5 12 64.9 12 1.5.2 2.8 1 3.7 2.2 6 9.3 17.7 22.3 24.7 22.3 1.4 0 2.7.6 3.6 1.6s1.4 2.3 1.4 3.7c-.1 2.8-3.7 69.7-25 98.4-21.8 29.4-71.6 43.6-73.7 44.2-.4 0-.8.1-1.3.1zm-89.8-140.6c.9 12.6 5.6 67 22.9 90.3 17.9 24.1 59 37.6 67 40.1 8-2.4 49.1-16 67-40.1 16.6-22.3 21.6-73.3 22.7-88.6-11.4-3.7-22.3-17.9-26.5-23.9-9.3-1-43.9-5.1-64.8-12.2-13.9-4.7-21.8-20.1-26.2-33.7-9 25.1-27.1 39.4-28.1 40.2-1.4 1.1-3.2 1.3-4.9.7-1.6-.6-2.8-2.1-3.1-3.8l-1.5-8.2c-6.7 22.7-19.3 34.9-24.5 39.2z"/></g><g id="XMLID_816_"><path id="XMLID_4471_" d="m173.1 355.2-4.2-9.1 52.1-24.3v-25.5h10v28.7c0 1.9-1.1 3.7-2.9 4.5z"/></g><g id="XMLID_586_"><path id="XMLID_4470_" d="m338.2 354.9-54.3-25.3c-1.8-.8-2.9-2.6-2.9-4.5v-28.7h10v25.5l51.5 24z"/></g><g id="XMLID_625_"><path id="XMLID_4469_" d="m419 512h-326c-2.8 0-5-2.2-5-5v-81.8c0-25.2 14.7-48.3 37.5-58.9l19.4-9 4.2 9.1-19.4 9c-19.3 9-31.8 28.6-31.8 49.9v76.7h316v-76.8c0-21.3-12.5-40.9-31.8-49.8l-19.3-9 4.2-9.1 19.3 9c22.8 10.6 37.5 33.8 37.5 58.9v81.8c.2 2.8-2 5-4.8 5z"/></g><g id="XMLID_1269_"><path id="XMLID_4468_" d="m256 262.1c-18.6 0-29.7-11.4-31.7-13.7l7.5-6.7c1 1.1 9.8 10.5 24.6 10.3 14.1-.1 22.4-8.6 23.9-10.3l7.5 6.7c-2 2.3-13 13.5-31.3 13.7-.2 0-.4 0-.5 0z"/></g><g id="XMLID_1268_"><path id="XMLID_4467_" d="m192.5 161.3-5.1-8.6c5.2-3.1 13.6-6.7 24.5-6.7h.3c10.8.1 19.1 3.7 24.3 6.7l-5.1 8.6c-4.1-2.4-10.7-5.3-19.2-5.3-.1 0-.2 0-.2 0-8.6 0-15.3 2.9-19.5 5.3z"/></g><g id="XMLID_1267_"><path id="XMLID_4445_" d="m204 181h10v18h-10z"/></g><g id="XMLID_1266_"><path id="XMLID_4444_" d="m210 181h10v18h-10z"/></g><g id="XMLID_1265_"><path id="XMLID_4443_" d="m194 192h-4v-10h2.5c6-3.9 12.7-6 19.5-6h.2c8.1 0 14.1 3.2 17.7 5.1.7.4 1.6.8 1.9.9l-3.4 9.4c-1-.4-2-.9-3.2-1.5-3.1-1.7-7.4-4-13.1-4-5.2 0-10.5 1.8-15.2 5.1-.9.7-1.9 1-2.9 1z"/></g><g id="XMLID_1264_"><path id="XMLID_4442_" d="m319.5 161.3c-4.1-2.4-10.8-5.3-19.5-5.3-.1 0-.2 0-.2 0-8.5 0-15.2 2.9-19.2 5.3l-5.1-8.6c5.1-3 13.5-6.7 24.3-6.7h.3c10.9 0 19.3 3.6 24.5 6.7z"/></g><g id="XMLID_1263_"><path id="XMLID_4441_" d="m298 181h10v18h-10z"/></g><g id="XMLID_1262_"><path id="XMLID_4440_" d="m292 181h10v18h-10z"/></g><g id="XMLID_1261_"><path id="XMLID_4439_" d="m322 192h-4c-1 0-2-.3-2.9-.9-4.7-3.3-9.9-5.1-15.2-5.1h-.1c-5.6 0-9.8 2.3-12.9 4-1.2.6-2.2 1.2-3.2 1.5l-3.4-9.4c.3-.1 1.2-.6 1.9-.9 3.6-1.9 9.6-5.1 17.7-5.1h.2c6.8 0 13.5 2.1 19.5 6h2.5v9.9z"/></g><g id="XMLID_464_"><path id="XMLID_4304_" d="m273.5 141.1c-.5-1-12.4-24.9-16-47.9l9.9-1.5c3.3 21.4 14.9 44.7 15 44.9z"/></g><g id="XMLID_465_"><path id="XMLID_4303_" d="m318.6 149.1c-1-1-25.3-24-29.5-51.9l9.9-1.5c3.7 24.5 26.2 45.9 26.5 46.1z"/></g><g id="XMLID_439_"><path id="XMLID_4302_" d="m166 170h-10c0-31 6.5-72.5 6.7-74.3l9.9 1.5c-.1.5-6.6 42.6-6.6 72.8z"/></g><g id="XMLID_507_"><path id="XMLID_4301_" d="m356 170h-10c0-37.1-9-68.6-9.1-68.9l9.6-2.8c.4 1.3 9.5 33.1 9.5 71.7z"/></g><g id="XMLID_500_"><path id="XMLID_4300_" d="m156 256h10v60h-10z"/></g><g id="XMLID_544_"><path id="XMLID_4299_" d="m346 256h10v60h-10z"/></g><g id="XMLID_545_"><path id="XMLID_4298_" d="m256 490.7c-1.1 0-2.2-.4-3.1-1.1l-95.2-76.4 6.3-7.8 92.1 73.9 71.9-57.4 6.2 7.8-75 59.9c-1 .7-2.1 1.1-3.2 1.1z"/></g><g id="XMLID_546_"><path id="XMLID_4297_" d="m256 450.7c-2 0-3.8-1.2-4.6-3.1l-47-112.7 9.2-3.8 42.4 101.6 42.4-101.7 9.2 3.8-47 112.7c-.8 2-2.6 3.2-4.6 3.2z"/></g><g id="XMLID_561_"><path id="XMLID_4296_" d="m256.2 391.3c-16.3 0-31.5-10.8-32.1-11.3l5.8-8.1c.1.1 13.3 9.4 26.3 9.4s25.8-9.3 25.9-9.3l5.9 8.1c-.6.4-15.5 11.2-31.8 11.2z"/></g><g id="XMLID_3520_"><path id="XMLID_4295_" d="m156 371h10v136h-10z"/></g><g id="XMLID_3519_"><path id="XMLID_4294_" d="m71.6 426.4h112.6v10h-112.6z" transform="matrix(.158 .987 -.987 .158 533.664 236.927)"/></g><g id="XMLID_814_"><path id="XMLID_4293_" d="m372 512h-21c-2.8 0-5-2.2-5-5v-136h10v131h11.7l20.3-127.2 9.9 1.6-21 131.4c-.4 2.4-2.4 4.2-4.9 4.2z"/></g><g id="XMLID_436_"><path id="XMLID_3756_" d="m324.5 382c-1.9 0-3.7-1.1-4.5-2.8s-.6-3.8.6-5.3c.2-.3 22.9-29.4 25.2-54-9.1-2.1-32.9-6.9-59.8-6.9v-10c35.6 0 65.1 7.9 66.3 8.2 2.2.6 3.7 2.6 3.7 4.8 0 20.2-13 42.9-21.2 55.1 15.5-2.6 28.7-11.3 39.4-25.9 8.6-11.7 12.7-23.6 13.7-26.8-1.1-11.5-11.9-119.5-11.9-190.4 0-70.6-48.2-118-120-118s-120 47.4-120 118c0 70.9-10.8 178.9-11.9 190.5 1 3.2 5.1 15.1 13.7 26.8 10.7 14.6 23.9 23.2 39.4 25.9-8.2-12.3-21.2-35-21.2-55.2 0-2.3 1.5-4.2 3.7-4.8 1.2-.3 30.7-8.2 66.3-8.2v10c-26.9 0-50.8 4.8-59.8 6.9 2.3 24.6 25 53.7 25.2 54 1.2 1.5 1.4 3.6.6 5.3s-2.6 2.8-4.5 2.8c-23.1 0-43.2-10.7-58-31.1-11-15.1-15.2-30-15.3-30.6-.2-.6-.2-1.2-.2-1.8.1-1.2 12-116.4 12-190.5 0-37.8 12.9-70 37.2-93.3 23.3-22.4 56.3-34.7 92.8-34.7s69.5 12.3 92.8 34.7c24.3 23.3 37.2 55.5 37.2 93.3 0 74.1 11.9 189.3 12 190.5.1.6 0 1.2-.2 1.8s-4.4 15.6-15.3 30.6c-14.8 20.4-34.9 31.1-58 31.1z"/></g><g id="XMLID_3497_"><path id="XMLID_3726_" d="m251 446h10v40h-10z"/></g></g></g></svg>