<svg id="Capa_1" data-name="Capa 1" xmlns="http://www.w3.org/2000/svg" viewBox="0 0 208.8 118.4"><defs><style>.cls-1{fill:#6c757d;}.cls-2{font-size:13.18px;fill:gray;font-family:Aller-Bold, Aller;font-weight:700;}.cls-3{letter-spacing:0.02em;}.cls-4{letter-spacing:0.1em;}.cls-5{letter-spacing:0.08em;}.cls-6{letter-spacing:0.1em;}.cls-7{letter-spacing:0.09em;}.cls-8{fill:#7200ea;}</style></defs><path class="cls-1" d="M1.2,62.9H20.8a7.6,7.6,0,0,1,7.5,7.5H9.7v8.3H25V86H9.7v14.3H1.2Z"/><path class="cls-1" d="M41.3,70.9h0v29.4H32.9V79.2A8.4,8.4,0,0,1,41.3,70.9Z"/><path class="cls-1" d="M55.8,70.9h0v4.2a11.2,11.2,0,0,1,4-3.5,10.8,10.8,0,0,1,5.4-1.3,11.2,11.2,0,0,1,4.2.8,8.3,8.3,0,0,1,3.2,2.2,10.8,10.8,0,0,1,2.1,3.4,15.6,15.6,0,0,1,.7,4.4v19.2H67.1V84a5.7,5.7,0,0,0-1.4-4,4.9,4.9,0,0,0-3.6-1.5,5.5,5.5,0,0,0-2.6.6,7,7,0,0,0-1.9,1.6,6.1,6.1,0,0,0-1.3,2.2,8.1,8.1,0,0,0-.5,2.7v14.7H47.5V79.2A8.3,8.3,0,0,1,55.8,70.9Z"/><path class="cls-1" d="M89.9,70.9h0v4.2a12.1,12.1,0,0,1,4-3.5,10.8,10.8,0,0,1,5.4-1.3,11.8,11.8,0,0,1,4.3.8,10.2,10.2,0,0,1,3.2,2.2,11.3,11.3,0,0,1,2.7,7.8v19.2h-8.3V84a5.7,5.7,0,0,0-1.4-4,4.9,4.9,0,0,0-3.6-1.5,5.1,5.1,0,0,0-2.5.6,6.2,6.2,0,0,0-2,1.6,8,8,0,0,0-1.3,2.2,11.7,11.7,0,0,0-.5,2.7v14.7H81.6V79.2A8.3,8.3,0,0,1,89.9,70.9Z"/><path class="cls-1" d="M114.2,85.6a15.1,15.1,0,0,1,1.2-6.1,14.9,14.9,0,0,1,3.2-4.9,16.1,16.1,0,0,1,4.8-3.2,16.1,16.1,0,0,1,17.3,3.2,14.9,14.9,0,0,1,3.2,4.9,15.6,15.6,0,0,1-3.2,17,17,17,0,0,1-17.3,3.2,16.1,16.1,0,0,1-4.8-3.2,15.3,15.3,0,0,1-4.4-10.9m8.6,0a7.6,7.6,0,0,0,.5,2.7,5.5,5.5,0,0,0,1.4,2.2,5.4,5.4,0,0,0,2.2,1.5,6.8,6.8,0,0,0,5.6,0,5.1,5.1,0,0,0,2.1-1.5,6.9,6.9,0,0,0,1.4-2.2,7.6,7.6,0,0,0,.5-2.7,8.1,8.1,0,0,0-.5-2.7,5.9,5.9,0,0,0-1.4-2.3,5.1,5.1,0,0,0-2.1-1.5,6.7,6.7,0,0,0-2.8-.6,6.4,6.4,0,0,0-2.8.6,5.4,5.4,0,0,0-2.2,1.5,5.9,5.9,0,0,0-1.4,2.3,8.1,8.1,0,0,0-.5,2.7"/><path class="cls-1" d="M156.9,100.3l-7.8-21a6.2,6.2,0,0,1,5.8-8.4h0l6.6,19.4,6.7-19.4h8.9l-11,29.4Z"/><path class="cls-1" d="M208.8,100.3h-8.3V96.8a7.8,7.8,0,0,1-3.3,2.9,11,11,0,0,1-5.1,1.1,15.8,15.8,0,0,1-5.8-1.1,14,14,0,0,1-7.3-8,17,17,0,0,1-1-6.1,17.4,17.4,0,0,1,1-6.1,13.5,13.5,0,0,1,7.4-8.1,14.8,14.8,0,0,1,5.7-1.1,11,11,0,0,1,5.1,1.1,8,8,0,0,1,3.3,3V70.9h0a8.3,8.3,0,0,1,8.3,8.3Zm-8.3-15.7a7.3,7.3,0,0,0-2.1-4.4,7.2,7.2,0,0,0-4.8-1.7,6.5,6.5,0,0,0-2.9.6,4.8,4.8,0,0,0-2.2,1.5,4.9,4.9,0,0,0-1.4,2.3,8.1,8.1,0,0,0-.5,2.7,7.6,7.6,0,0,0,.5,2.7,5.5,5.5,0,0,0,1.4,2.2,4.8,4.8,0,0,0,2.2,1.5,6.8,6.8,0,0,0,2.9.6,7.5,7.5,0,0,0,2.6-.5,7.2,7.2,0,0,0,2.1-1.2,7,7,0,0,0,1.5-1.9,6.7,6.7,0,0,0,.7-2.4Z"/><text class="cls-2" transform="translate(0 115.1)"><tspan class="cls-3">T</tspan><tspan class="cls-4" x="7.7" y="0">u futu</tspan><tspan class="cls-5" x="51.4" y="0">r</tspan><tspan class="cls-6" x="57.8" y="0">o ﬁnancie</tspan><tspan class="cls-7" x="128.6" y="0">r</tspan><tspan class="cls-4" x="135" y="0">o a un cli</tspan><tspan x="201.3" y="0">c</tspan></text><path class="cls-8" d="M32.3,63.2a4.5,4.5,0,0,1,1.4-3.3,4.7,4.7,0,0,1,3.4-1.3,4.6,4.6,0,0,1,4.8,4.6,4.2,4.2,0,0,1-1.4,3.2,4.6,4.6,0,0,1-3.4,1.4,4.8,4.8,0,0,1-3.4-1.4,4.2,4.2,0,0,1-1.4-3.2"/><path class="cls-8" d="M74,31.9l4.7-4.8a2.1,2.1,0,0,1,2.9,0L98.1,43.6a1.9,1.9,0,0,0,2.8,0l19.3-19.2a2.1,2.1,0,0,1,2.9,0l4.7,4.7a2.1,2.1,0,0,1,0,2.9L100.9,58.8a1.9,1.9,0,0,1-2.8,0L74,34.8A2.1,2.1,0,0,1,74,31.9Z"/><path class="cls-1" d="M93,27.3,119.7.6a2.2,2.2,0,0,1,3,0l10.2,10.2a2.3,2.3,0,0,1,.7,1.5v9.2a2.2,2.2,0,0,1-3.7,1.6l-7.2-7.2a2.2,2.2,0,0,0-3,0L100.6,35a2.2,2.2,0,0,1-3,0L93,30.4A2.3,2.3,0,0,1,93,27.3Z"/></svg>