<svg id="Capa_1" data-name="Capa 1" xmlns="http://www.w3.org/2000/svg" viewBox="0 0 208.85 118.37"><defs><style>.cls-1{fill:#6c757d;}.cls-2{font-size:13.18px;fill:gray;font-family:Aller-Bold, Aller;font-weight:700;}.cls-3{letter-spacing:0.02em;}.cls-4{letter-spacing:0.1em;}.cls-5{letter-spacing:0.08em;}.cls-6{letter-spacing:0.1em;}.cls-7{letter-spacing:0.09em;}.cls-8{fill:#7200ea;}</style></defs><path class="cls-1" d="M1.16,62.93H20.79a7.47,7.47,0,0,1,7.47,7.48H9.75v8.25H25V86H9.75V100.3H1.16Z"/><path class="cls-1" d="M41.26,70.85h0V100.3H33V79.16A8.31,8.31,0,0,1,41.26,70.85Z"/><path class="cls-1" d="M55.81,70.85h0v4.3a11.53,11.53,0,0,1,4-3.57,11.06,11.06,0,0,1,5.38-1.29,10.69,10.69,0,0,1,4.24.81,9.44,9.44,0,0,1,3.21,2.23,10.1,10.1,0,0,1,2,3.41,12.48,12.48,0,0,1,.73,4.37V100.3H67.08V84a5.52,5.52,0,0,0-1.42-4,4.77,4.77,0,0,0-3.6-1.48,5.31,5.31,0,0,0-2.51.58A6.68,6.68,0,0,0,57.6,80.7a7,7,0,0,0-1.29,2.23,9.22,9.22,0,0,0-.5,2.65V100.3H47.5V79.16A8.31,8.31,0,0,1,55.81,70.85Z"/><path class="cls-1" d="M89.94,70.85h0v4.3a11.53,11.53,0,0,1,4-3.57,11.09,11.09,0,0,1,5.38-1.29,10.69,10.69,0,0,1,4.24.81,9.34,9.34,0,0,1,3.21,2.23,10.1,10.1,0,0,1,2,3.41,12.48,12.48,0,0,1,.73,4.37V100.3h-8.31V84a5.48,5.48,0,0,0-1.42-4,4.77,4.77,0,0,0-3.6-1.48,5.31,5.31,0,0,0-2.51.58,6.68,6.68,0,0,0-2,1.57,6.76,6.76,0,0,0-1.28,2.23,8.9,8.9,0,0,0-.51,2.65V100.3H81.63V79.16A8.31,8.31,0,0,1,89.94,70.85Z"/><path class="cls-1" d="M114.2,85.58a15.58,15.58,0,0,1,1.18-6.11,14.64,14.64,0,0,1,3.2-4.85,14.49,14.49,0,0,1,4.85-3.18,17.1,17.1,0,0,1,12.33,0,14.65,14.65,0,0,1,8.17,8.06,16.36,16.36,0,0,1,0,12.15,14.56,14.56,0,0,1-3.26,4.83,15.06,15.06,0,0,1-4.91,3.18,17.24,17.24,0,0,1-12.33,0,14.49,14.49,0,0,1-4.85-3.18,14.87,14.87,0,0,1-3.2-4.83,15.32,15.32,0,0,1-1.18-6.07m8.59,0a7.41,7.41,0,0,0,.5,2.68,6.67,6.67,0,0,0,1.43,2.23,6.82,6.82,0,0,0,5,2.06,6.77,6.77,0,0,0,2.76-.55,6.43,6.43,0,0,0,2.12-1.51,7.33,7.33,0,0,0,1.87-4.91,8,8,0,0,0-.48-2.76,6.86,6.86,0,0,0-1.36-2.29,6.39,6.39,0,0,0-2.15-1.53,6.77,6.77,0,0,0-2.76-.56,6.92,6.92,0,0,0-2.82.56,6.67,6.67,0,0,0-2.17,1.53,7,7,0,0,0-1.43,2.29,7.76,7.76,0,0,0-.5,2.76"/><path class="cls-1" d="M156.92,100.3l-7.84-21a6.23,6.23,0,0,1,5.84-8.41h0l6.58,19.41,6.69-19.41h8.92l-11,29.45Z"/><path class="cls-1" d="M208.85,100.3h-8.31V96.84a9.11,9.11,0,0,1-3.32,2.9,11.1,11.1,0,0,1-5.16,1.06,14.08,14.08,0,0,1-5.72-1.14,13,13,0,0,1-4.43-3.15,14.24,14.24,0,0,1-2.87-4.8,18.44,18.44,0,0,1,0-12.21,14.65,14.65,0,0,1,2.9-4.86,13,13,0,0,1,4.46-3.2,13.9,13.9,0,0,1,5.66-1.15,11,11,0,0,1,5.16,1.09,9.26,9.26,0,0,1,3.32,3V70.85h0a8.31,8.31,0,0,1,8.31,8.31Zm-8.31-15.73a6.78,6.78,0,0,0-7-6.08,7.28,7.28,0,0,0-2.9.56,6.46,6.46,0,0,0-3.59,3.82,8,8,0,0,0-.48,2.76,7.41,7.41,0,0,0,.5,2.68,6.92,6.92,0,0,0,1.4,2.23,6.57,6.57,0,0,0,2.2,1.51,7.27,7.27,0,0,0,2.87.55,7.06,7.06,0,0,0,2.65-.47,7.58,7.58,0,0,0,2.12-1.26A5.84,5.84,0,0,0,199.81,89a7.86,7.86,0,0,0,.73-2.34Z"/><text class="cls-2" transform="translate(0 115.09)"><tspan class="cls-3">T</tspan><tspan class="cls-4" x="7.73" y="0">u futu</tspan><tspan class="cls-5" x="51.41" y="0">r</tspan><tspan class="cls-6" x="57.83" y="0">o ﬁnancie</tspan><tspan class="cls-7" x="128.62" y="0">r</tspan><tspan class="cls-4" x="135.03" y="0">o a un cli</tspan><tspan x="201.27" y="0">c</tspan></text><path class="cls-8" d="M32.33,63.16a4.37,4.37,0,0,1,1.37-3.24,4.71,4.71,0,0,1,3.43-1.34,4.63,4.63,0,0,1,3.37,1.34,4.37,4.37,0,0,1,1.37,3.24,4.45,4.45,0,0,1-1.37,3.29,4.63,4.63,0,0,1-3.37,1.34,4.71,4.71,0,0,1-3.43-1.34,4.45,4.45,0,0,1-1.37-3.29"/><path class="cls-8" d="M74,31.87l4.74-4.74a2,2,0,0,1,2.89,0L98.06,43.58a2.06,2.06,0,0,0,2.89,0l19.22-19.22a2,2,0,0,1,2.88,0l4.75,4.74a2.06,2.06,0,0,1,0,2.89L101,58.84a2,2,0,0,1-2.89,0L74,34.76A2,2,0,0,1,74,31.87Z"/><path class="cls-1" d="M93,27.33,119.7.63a2.15,2.15,0,0,1,3,0l10.2,10.2a2.16,2.16,0,0,1,.63,1.52v9.19a2.15,2.15,0,0,1-3.66,1.52l-7.17-7.17a2.15,2.15,0,0,0-3,0L100.63,35a2.15,2.15,0,0,1-3,0L93,30.37A2.15,2.15,0,0,1,93,27.33Z"/></svg>